<svg width="547" height="400" viewBox="0 0 547 400" fill="none" xmlns="http://www.w3.org/2000/svg">
<g clip-path="url(#clip0_102_4676)">
<path d="M142.983 223.638L143.194 223.182C141.938 224.988 137.913 230.438 137.913 230.438C137.913 230.438 137.64 227.212 137.706 226.482C137.726 226.119 144.816 219.682 140.978 209.222C140.799 208.734 140.538 208.255 140.304 207.786C140.183 207.564 140.062 207.338 139.941 207.111C139.886 207.006 139.805 206.87 139.727 206.733L139.493 206.331L139.255 205.925L139.223 205.875C139.278 205.996 139.231 205.894 139.239 205.918L139.223 205.894L139.165 205.804L139.052 205.629C138.9 205.395 138.744 205.157 138.592 204.919C138.256 204.458 137.933 203.986 137.558 203.542C136.127 201.72 134.345 200.073 132.317 198.692C130.292 197.307 127.984 196.234 125.542 195.551C123.101 194.865 120.523 194.58 117.976 194.736C115.422 194.88 112.918 195.473 110.558 196.472C108.234 197.444 106.066 198.793 104.229 200.413C103.304 201.22 102.458 202.094 101.674 203.003C100.894 203.916 100.231 204.895 99.6112 205.875C98.9911 206.858 98.4763 207.872 98.0278 208.89C97.5754 209.905 97.2088 210.927 96.9163 211.93C96.7486 212.429 96.6472 212.932 96.5146 213.424C96.421 213.919 96.3001 214.407 96.2299 214.887C96.0466 215.847 95.9764 216.775 95.9023 217.657C95.7814 219.424 95.8633 221.005 95.9998 222.315C96.0232 222.647 96.07 222.955 96.1129 223.248C96.1558 223.541 96.1831 223.821 96.2299 224.075C96.3274 224.578 96.3898 225.023 96.4678 225.382C96.6199 226.104 96.7018 226.486 96.7018 226.486C96.7018 226.486 96.4678 226.17 96.031 225.581C95.6137 224.98 95.0092 224.044 94.4008 222.784C93.7807 221.52 93.1528 219.9 92.716 217.942C92.287 215.987 92.014 213.682 92.1817 211.153C92.3182 208.929 92.7667 206.522 93.6364 204.099C92.7355 201.942 91.5655 199.691 90.0757 197.455C89.8534 197.104 89.6038 196.765 89.3581 196.417C89.1085 196.078 88.8706 195.707 88.6093 195.387C88.3519 195.064 88.0945 194.736 87.8332 194.408C87.7162 194.248 87.5524 194.065 87.3964 193.885C87.2404 193.706 87.0844 193.523 86.9245 193.339C86.7685 193.156 86.6086 192.972 86.4487 192.789L86.3902 192.719C86.476 192.832 86.398 192.734 86.4097 192.75L86.3824 192.719L86.2654 192.598L86.0314 192.352C85.7194 192.028 85.4152 191.693 85.0954 191.369C84.4324 190.737 83.7772 190.089 83.0557 189.496C80.2438 187.046 76.9093 184.951 73.2355 183.386C71.3908 182.626 69.4759 181.955 67.4869 181.486C66.9877 181.369 66.4846 181.276 65.9854 181.167C65.4823 181.061 64.9714 180.999 64.4644 180.909C63.4465 180.753 62.4208 180.624 61.3834 180.558C60.2134 180.484 59.0317 180.464 57.8539 180.499C54.5 180.599 53.0867 180.728 50 181.5C48 182 48.1333 182.089 47.3941 182.333C43.9387 183.472 40.6861 185.169 37.7377 187.28L37.0552 187.772L37.0357 187.787L36.9577 187.85L36.8056 187.971L36.5014 188.213C36.0958 188.536 35.6863 188.852 35.3002 189.196C34.5046 189.851 33.7636 190.561 33.0304 191.275C31.5874 192.723 30.3082 194.295 29.1382 195.914C27.976 197.541 26.9893 199.254 26.1118 200.982C25.2382 202.718 24.5713 204.509 23.9902 206.284C23.6899 207.17 23.4676 208.067 23.2375 208.949C23.14 209.394 23.0464 209.839 22.9528 210.279C22.8553 210.72 22.7929 211.161 22.711 211.598C22.4107 213.35 22.243 215.074 22.2001 216.744C22.1455 217.579 22.1884 218.395 22.1806 219.202C22.204 219.604 22.2235 220.002 22.2469 220.392C22.2547 220.587 22.2664 220.786 22.2781 220.981C22.2976 221.176 22.3132 221.367 22.3327 221.559C22.3483 221.75 22.3678 221.933 22.3834 222.12C22.9333 222.038 23.4832 222.015 24.0214 221.988C24.3334 221.972 24.6376 221.957 24.9457 221.941L25.1719 221.929H25.285L25.3903 221.918H25.441L25.8583 221.937C26.143 221.953 26.3887 221.953 26.7007 221.98C27.0049 222.003 27.3052 222.031 27.6055 222.054C27.9058 222.078 28.1788 222.128 28.4596 222.159C28.7404 222.195 29.0134 222.234 29.2864 222.292C30.3745 222.487 31.3885 222.772 32.3362 223.076C33.2722 223.412 34.1497 223.755 34.9297 224.157C36.5053 224.937 37.7572 225.796 38.7166 226.576C39.6838 227.341 40.3429 228.055 40.7914 228.519C41.2243 229.007 41.4427 229.272 41.4427 229.272C41.4427 229.272 41.1424 229.1 40.5847 228.78C40.3039 228.624 39.9529 228.441 39.5434 228.23C39.1183 228.039 38.6542 227.797 38.1082 227.575C37.0279 227.118 35.7019 226.634 34.1536 226.272C32.6131 225.897 30.8503 225.655 28.951 225.651C28.4791 225.651 27.9877 225.667 27.5119 225.69C27.2779 225.71 27.0439 225.729 26.806 225.745C26.5759 225.76 26.2756 225.807 26.0104 225.835L25.597 225.885L25.5463 225.893C25.636 225.889 25.558 225.893 25.5736 225.893H25.5502L25.4566 225.917L25.2694 225.952C25.0198 226.002 24.7663 226.049 24.5089 226.1C24.0292 226.194 23.5417 226.272 23.062 226.432C23.0659 226.455 23.0737 226.482 23.0776 226.506C22.9996 226.498 22.9216 226.498 22.8436 226.494C20.839 227.021 18.85 227.926 17.0014 229.131C16.7674 229.291 16.51 229.412 16.2916 229.6C16.0693 229.775 15.8392 229.951 15.613 230.122C15.3829 230.294 15.1567 230.466 14.9266 230.637L14.2909 231.226L13.6513 231.812C13.4368 232.007 13.2574 232.241 13.0585 232.452C12.6685 232.881 12.2473 233.29 11.9119 233.774C10.4689 235.62 9.29886 237.719 8.55396 239.97C8.39016 240.539 8.20296 241.101 8.05086 241.671C7.93776 242.252 7.82076 242.83 7.70766 243.411C7.65696 243.961 7.60236 244.499 7.52826 245.042L7.50096 245.245V245.498V246.005V247.012L7.49316 247.441V247.484L7.50876 247.593L7.52826 247.812C7.55556 248.104 7.58676 248.393 7.60626 248.686C7.63746 248.974 7.62966 249.271 7.69206 249.556C7.74276 249.84 7.79736 250.125 7.84806 250.41C7.89876 250.695 7.94946 250.98 8.00016 251.261C8.07036 251.538 8.16006 251.811 8.23416 252.088C8.39796 252.634 8.51106 253.2 8.74116 253.715C8.84256 253.98 8.94396 254.241 9.04146 254.503C9.13896 254.768 9.23256 255.029 9.36906 255.275C9.61866 255.779 9.86046 256.274 10.1062 256.766C10.3948 257.238 10.6756 257.702 10.9564 258.162C11.0851 258.404 11.2684 258.599 11.4244 258.818C11.5843 259.032 11.7403 259.251 11.8963 259.462C12.1888 259.906 12.5593 260.281 12.8986 260.671C13.0702 260.866 13.2418 261.057 13.4095 261.248C13.5772 261.444 13.7761 261.603 13.9516 261.783C14.3221 262.126 14.6692 262.485 15.0436 262.805C15.4297 263.106 15.808 263.402 16.1785 263.702C16.5373 264.022 16.9507 264.237 17.3251 264.498C17.5162 264.623 17.7073 264.748 17.8945 264.873L18.1753 265.06L18.4639 265.216C19.2361 265.626 19.9654 266.059 20.7025 266.344C21.0691 266.504 21.424 266.656 21.7672 266.804C22.0051 266.898 22.2391 266.972 22.4731 267.046C22.5979 266.988 22.7227 266.933 22.8475 266.874C23.0581 266.777 23.2726 266.679 23.4832 266.586C23.6938 266.488 23.8966 266.394 24.1423 266.297C24.6103 266.106 25.0783 265.915 25.5385 265.727C25.9987 265.536 26.4472 265.404 26.8918 265.24C27.3364 265.084 27.7771 264.931 28.2217 264.814C28.6663 264.69 29.1031 264.569 29.536 264.444C29.9728 264.335 30.4096 264.241 30.8347 264.143C31.6849 263.933 32.539 263.812 33.358 263.671C35.0116 263.457 36.5755 263.301 38.0497 263.301C40.9942 263.258 43.5214 263.578 45.5533 263.991C46.5712 264.178 47.4604 264.44 48.2326 264.647C48.997 264.889 49.6405 265.095 50.1592 265.275C51.1888 265.665 51.7231 265.887 51.7231 265.887C51.7231 265.887 51.1459 265.837 50.0617 265.743C49.5196 265.704 48.8527 265.673 48.0766 265.642C47.2927 265.649 46.4074 265.61 45.4129 265.661C43.4278 265.727 41.041 265.946 38.3968 266.504C35.7526 267.046 32.8588 267.951 29.9221 269.336C29.5516 269.496 29.1889 269.691 28.8223 269.879C28.4596 270.07 28.0696 270.245 27.7225 270.452C27.3715 270.655 27.0205 270.858 26.6656 271.061C26.494 271.154 26.2951 271.283 26.1001 271.408C25.9051 271.533 25.7101 271.658 25.5112 271.782C25.3123 271.907 25.1173 272.032 24.9184 272.161L24.8443 272.208C24.9574 272.145 24.856 272.208 24.8716 272.196L24.8365 272.219L24.7039 272.313L24.4348 272.5C24.076 272.754 23.7094 273 23.3506 273.265C22.6486 273.811 21.931 274.354 21.2563 274.966C18.4912 277.33 15.9952 280.253 13.9711 283.581C12.9727 285.254 12.0562 287.01 11.3269 288.871C11.1436 289.335 10.9798 289.807 10.8043 290.279C10.6327 290.751 10.5001 291.235 10.3441 291.715C10.0516 292.679 9.78246 293.654 9.57576 294.645C8.73726 298.609 8.52666 302.768 9.09606 306.826C9.61086 310.899 10.9096 314.831 12.7933 318.452C13.7332 320.227 14.8135 321.956 16.0069 323.547C17.2081 325.139 18.5536 326.594 19.9615 327.94C21.3733 329.283 22.8943 330.469 24.4465 331.553C26.0065 332.63 27.6445 333.516 29.2786 334.316C30.0937 334.725 30.9283 335.057 31.7512 335.4C32.1685 335.552 32.5858 335.704 32.9953 335.853C33.4087 336.005 33.826 336.126 34.2355 336.262C35.8852 336.785 37.5271 337.175 39.1261 337.441C39.9256 337.604 40.7173 337.671 41.4934 337.784C41.8834 337.815 42.2695 337.846 42.6478 337.878C42.8389 337.893 43.03 337.909 43.2172 337.928C43.4044 337.936 43.5955 337.944 43.7788 337.952C44.1532 337.967 44.5237 337.983 44.8903 337.999C45.0463 337.999 45.1945 337.999 45.3505 337.999C45.4051 335.178 45.9082 332.474 46.735 330.043C47.2147 328.631 47.7841 327.324 48.4549 326.091L48.685 325.685C48.7591 325.553 48.8332 325.42 48.9307 325.26C49.114 324.956 49.2973 324.659 49.4806 324.359C49.66 324.058 49.8511 323.809 50.0344 323.536C50.2177 323.266 50.401 323.005 50.5999 322.759C50.7949 322.51 50.9899 322.264 51.181 322.022C51.3838 321.788 51.5827 321.558 51.7816 321.327C52.1677 320.867 52.5928 320.454 52.9906 320.048C53.8252 319.267 54.6286 318.553 55.4476 317.968C57.0661 316.778 58.5988 315.963 59.8897 315.409C61.1767 314.843 62.2336 314.547 62.9473 314.355C63.6727 314.188 64.0549 314.11 64.0549 314.11C64.0549 314.11 63.7429 314.348 63.1618 314.789C62.881 315.015 62.5339 315.296 62.1244 315.623C61.7344 315.975 61.2781 316.345 60.8023 316.81C59.8468 317.719 58.7548 318.862 57.6901 320.278C56.6176 321.682 55.5763 323.36 54.7183 325.272C54.5038 325.744 54.2971 326.251 54.106 326.735C54.0202 326.973 53.9344 327.215 53.8486 327.457C53.8057 327.566 53.7589 327.718 53.7121 327.866L53.5717 328.311L53.4313 328.76L53.4118 328.814C53.4664 328.693 53.4235 328.795 53.4313 328.775L53.4235 328.803L53.3962 328.904L53.3416 329.107C53.2714 329.376 53.1973 329.649 53.1271 329.926C53.0101 330.484 52.8814 331.042 52.7995 331.616C52.4095 333.898 52.3861 336.329 52.7254 338.759C53.0608 341.19 53.8135 343.621 54.9445 345.891C56.0716 348.162 57.5926 350.265 59.4178 352.052C61.243 353.85 63.3607 355.305 65.6851 356.386C67.9666 357.459 70.4197 358.161 72.8533 358.438C74.0701 358.583 75.2869 358.622 76.4842 358.594C77.6854 358.563 78.8554 358.395 79.9981 358.196C81.1408 357.998 82.2406 357.697 83.2936 357.346C84.3505 357.003 85.3528 356.589 86.2927 356.129C86.7763 355.918 87.217 355.657 87.6694 355.423C88.0984 355.157 88.5391 354.923 88.9447 354.654C89.0695 354.576 89.1865 354.494 89.3074 354.416C88.9447 353.901 88.6366 353.366 88.3324 352.855C87.7552 351.79 87.2365 350.776 86.8582 349.777C86.0704 347.799 85.6453 346.008 85.4269 344.537C85.1929 343.067 85.1734 341.904 85.1734 341.124C85.1968 340.335 85.2241 339.926 85.2241 339.926C85.2241 339.926 85.3879 340.304 85.696 341.018C85.8559 341.365 86.0587 341.791 86.2927 342.294C86.554 342.782 86.8192 343.347 87.1741 343.952C87.8605 345.162 88.7614 346.574 89.9353 348.021C91.0975 349.477 92.5483 350.967 94.2838 352.329C94.7128 352.668 95.1769 353.008 95.6215 353.324C95.8438 353.472 96.0661 353.62 96.2923 353.768C96.3937 353.839 96.538 353.928 96.6784 354.014L97.0957 354.272L97.5169 354.533L97.5715 354.564C97.4545 354.474 97.552 354.549 97.5325 354.529L97.5559 354.541L97.6534 354.595L97.8484 354.701C98.1058 354.841 98.3671 354.986 98.6323 355.126C99.1744 355.384 99.7048 355.664 100.27 355.891C102.501 356.862 104.962 357.522 107.52 357.795C110.079 358.079 112.742 357.935 115.34 357.373C117.937 356.811 120.464 355.813 122.75 354.42C125.047 353.035 127.075 351.264 128.779 349.184C130.464 347.147 131.817 344.838 132.738 342.438C133.674 340.039 134.208 337.542 134.372 335.111C134.426 334.503 134.426 333.902 134.442 333.301C134.43 332.704 134.423 332.115 134.384 331.53C134.313 330.363 134.157 329.232 133.943 328.151C133.857 327.605 133.709 327.082 133.592 326.559C133.436 326.052 133.315 325.537 133.147 325.053C132.855 324.066 132.469 323.165 132.106 322.303C131.357 320.59 130.515 319.147 129.75 317.984C129.567 317.683 129.372 317.418 129.189 317.165C129.005 316.911 128.846 316.657 128.678 316.443C128.342 316.018 128.069 315.631 127.82 315.331C127.325 314.73 127.063 314.406 127.063 314.406C127.063 314.406 127.438 314.582 128.144 314.913C128.838 315.265 129.867 315.834 131.065 316.708C132.274 317.578 133.67 318.776 135.062 320.387L153.533 288.239L103.854 292.971L104.486 291.056C102.579 291.817 100.641 292.339 98.7493 292.636C97.2478 292.874 95.797 292.983 94.3657 292.968C94.0303 292.956 93.7456 292.96 93.379 292.94C93.0202 292.921 92.6653 292.897 92.3143 292.878C91.9594 292.858 91.6396 292.808 91.3042 292.772C90.9766 292.737 90.649 292.698 90.3292 292.636C90.0094 292.577 89.6935 292.523 89.3815 292.468C89.0734 292.398 88.7692 292.328 88.465 292.261C87.8605 292.133 87.2872 291.949 86.7256 291.785C85.6141 291.411 84.5806 291.032 83.6524 290.58C81.7843 289.698 80.2945 288.719 79.1518 287.829C78.0013 286.948 77.2057 286.144 76.6753 285.598C76.1683 285.028 75.8953 284.724 75.8953 284.724C75.8953 284.724 76.2541 284.915 76.921 285.27C77.2564 285.434 77.6737 285.637 78.1612 285.879C78.6604 286.089 79.2142 286.358 79.8616 286.6C81.1408 287.1 82.7125 287.619 84.5338 287.997C86.3512 288.383 88.4182 288.61 90.6334 288.555C91.1833 288.543 91.7605 288.508 92.3143 288.465C92.5834 288.438 92.8603 288.407 93.1333 288.375C93.262 288.364 93.4258 288.34 93.5857 288.317L94.0654 288.247L94.549 288.177L94.6114 288.169C94.5022 288.176 94.5958 288.169 94.5802 288.169H94.6075L94.7167 288.141L94.9351 288.098C95.2276 288.04 95.524 287.981 95.8204 287.923C96.4093 287.775 97.0021 287.638 97.591 287.447C99.9583 286.749 102.31 285.633 104.486 284.146C105.566 283.393 106.619 282.57 107.591 281.63C107.828 281.392 108.066 281.154 108.304 280.912C108.542 280.67 108.761 280.409 108.987 280.159C109.439 279.652 109.876 279.129 110.282 278.579C111.912 276.386 113.195 273.893 114.014 271.26C114.841 268.622 115.196 265.86 115.079 263.106C115.012 261.756 114.852 260.386 114.587 259.071C114.314 257.753 113.912 256.477 113.448 255.244C112.976 254.011 112.391 252.845 111.764 251.729C111.128 250.613 110.383 249.591 109.622 248.615C108.858 247.64 108.023 246.758 107.162 245.955C106.307 245.143 105.414 244.414 104.513 243.77C104.073 243.43 103.605 243.149 103.164 242.845C102.704 242.58 102.263 242.287 101.807 242.053C101.581 241.928 101.358 241.807 101.14 241.686C100.914 241.577 100.691 241.468 100.473 241.363C100.036 241.14 99.5917 240.965 99.1666 240.773C97.4545 240.048 95.8633 239.591 94.5256 239.287C94.1902 239.201 93.8704 239.143 93.5701 239.088C93.2698 239.033 92.9812 238.963 92.7199 238.928C92.1895 238.858 91.7332 238.768 91.3549 238.729C90.5983 238.643 90.1966 238.596 90.1966 238.596C90.1966 238.596 90.5905 238.499 91.3276 238.319C92.0686 238.163 93.1957 237.96 94.6387 237.879C96.0856 237.785 97.8679 237.82 99.9037 238.156C101.932 238.499 104.225 239.119 106.565 240.239C108.905 241.343 111.315 242.908 113.507 244.999L163.949 244.144C162.077 243.282 142.995 223.654 142.995 223.654L142.983 223.638Z" fill="#D6CFC9"/>
<path d="M140.377 330.426L169.686 301.426L135.046 320.383C136.426 321.994 137.83 324.011 138.934 326.466C139.511 327.683 139.972 329.017 140.377 330.426Z" fill="#D6CFC9"/>
<path d="M122.013 265.332C122.001 265.781 122.001 266.23 121.974 266.678L121.864 268.028C121.677 269.827 121.299 271.61 120.765 273.346C120.421 274.45 120.004 275.523 119.532 276.572L146.017 265.391L120.987 257.475C121.451 259.152 121.771 260.877 121.911 262.667C121.985 263.37 122.02 264.447 122.013 265.332Z" fill="#D6CFC9"/>
<path d="M483.663 148.47V151.876L485.055 151.545V148.1L483.663 148.47Z" fill="#D3D3D3"/>
<path d="M483.663 123.487V127.318L485.055 127.536V125.757V122.059L483.663 123.487Z" fill="#D3D3D3"/>
<path d="M485.055 119.023V116.705L483.663 117.263V119.666L485.055 119.023Z" fill="#D3D3D3"/>
<path d="M430.475 168.069H428.466V128.976C428.002 128.902 427.538 128.836 427.074 128.77V169.458H485.052V151.921L483.659 151.976V168.069H430.471H430.475Z" fill="#D3D3D3"/>
<path d="M480.173 111.461H476.83C476.507 111.929 476.187 112.393 475.871 112.854H479.888C479.982 112.393 480.079 111.925 480.173 111.461Z" fill="#D3D3D3"/>
<path d="M469.104 111.793L468.41 112.854H469.533L469.104 111.793Z" fill="#D3D3D3"/>
<path d="M485.055 145.28V137.844L483.663 136.666V146.256L485.055 145.28Z" fill="#D3D3D3"/>
<path d="M427.078 117.442C427.542 117.5 428.006 117.555 428.47 117.621V112.854H464.978C465.041 112.405 465.107 111.941 465.177 111.461H427.082V117.442H427.078Z" fill="#D3D3D3"/>
<path d="M483.663 131.207V132.838L485.055 133.676V130.988L483.663 131.207Z" fill="#D3D3D3"/>
<path d="M493.612 129.662V132.361L496.182 131.433V129.264L493.612 129.662Z" fill="#D6CFC9"/>
<path d="M496.182 140.38V137.774L493.612 136.287V138.835L496.182 140.38Z" fill="#D6CFC9"/>
<path d="M493.612 145.814V149.528L496.182 148.923V145.127L493.612 145.814Z" fill="#D6CFC9"/>
<path d="M496.182 129.265V125.219L493.612 125.344V128.863L496.182 129.265Z" fill="#D6CFC9"/>
<path d="M475.528 102.901L477.107 100.334H470.934C470.996 101.227 471.058 102.09 471.113 102.901H475.524H475.528Z" fill="#E8E8E8"/>
<path d="M488.32 102.901C490.243 102.901 491.924 103.935 492.852 105.468L495.321 104.626C494.018 102.078 491.378 100.33 488.32 100.33H487.295L486.558 102.897H488.32V102.901Z" fill="#D6CFC9"/>
<path d="M496.182 115.395V112.25L493.612 113.28V117.786L496.182 115.395Z" fill="#D6CFC9"/>
<path d="M493.612 172.727C493.612 175.649 491.237 178.025 488.316 178.025H423.814C420.892 178.025 418.517 175.649 418.517 172.727V127.996C417.663 127.961 416.805 127.945 415.951 127.934V172.723C415.951 177.065 419.473 180.588 423.814 180.588H488.316C492.656 180.588 496.178 177.065 496.178 172.723V151.475L493.612 151.577V172.723V172.727Z" fill="#D6CFC9"/>
<path d="M418.521 108.195C418.521 105.273 420.896 102.897 423.817 102.897H466.441C466.569 102.047 466.698 101.188 466.827 100.33H423.814C419.473 100.33 415.951 103.853 415.951 108.195V116.697C416.809 116.705 417.663 116.724 418.517 116.751V108.192L418.521 108.195Z" fill="#D6CFC9"/>
<path d="M485.056 133.676L487.622 135.225V130.59L485.056 130.988V133.676Z" fill="#E8E8E8"/>
<path d="M487.622 143.485V140.013L485.056 137.844V145.28L487.622 143.485Z" fill="#E8E8E8"/>
<path d="M480.696 108.895H478.59C478.028 109.718 477.432 110.588 476.827 111.462H480.169C480.349 110.584 480.528 109.71 480.692 108.895H480.696Z" fill="#E8E8E8"/>
<path d="M471.581 109.316L471.838 108.895H471.55C471.569 109.168 471.581 109.316 471.581 109.316Z" fill="#E8E8E8"/>
<path d="M427.078 169.462V128.773C426.224 128.652 425.37 128.543 424.512 128.449V172.033H487.625V151.823L485.059 151.924V169.462H427.082H427.078Z" fill="#E8E8E8"/>
<path d="M485.056 148.101V151.546L487.622 150.941V147.414L485.056 148.101Z" fill="#E8E8E8"/>
<path d="M487.622 127.933V126.232V125.631L485.056 125.756V127.535L487.622 127.933Z" fill="#E8E8E8"/>
<path d="M485.056 122.057V125.756L487.622 123.364V119.424L485.056 122.057Z" fill="#E8E8E8"/>
<path d="M487.622 117.833V115.68L485.056 116.706V119.023L487.622 117.833Z" fill="#E8E8E8"/>
<path d="M424.512 108.895V117.158C425.37 117.24 426.224 117.337 427.078 117.443V111.462H465.173C465.29 110.642 465.415 109.784 465.548 108.895H424.508H424.512Z" fill="#E8E8E8"/>
<path d="M456.067 157.211C455.782 157.211 455.501 157.204 455.22 157.192C455.111 157.188 455.006 157.176 454.901 157.168C454.729 157.157 454.557 157.145 454.386 157.129C454.249 157.118 454.117 157.098 453.984 157.079C453.844 157.063 453.707 157.048 453.567 157.024C453.415 157.001 453.263 156.973 453.11 156.946C452.993 156.927 452.876 156.907 452.759 156.884C452.592 156.849 452.432 156.81 452.268 156.774C452.171 156.751 452.069 156.731 451.972 156.704C451.796 156.661 451.621 156.611 451.445 156.56C451.363 156.536 451.277 156.513 451.196 156.49C451.008 156.435 450.825 156.373 450.642 156.306C450.575 156.283 450.505 156.259 450.439 156.236C450.244 156.166 450.053 156.092 449.866 156.018C449.811 155.994 449.756 155.975 449.702 155.951C449.503 155.869 449.304 155.78 449.109 155.69C449.066 155.67 449.023 155.651 448.984 155.631C448.777 155.534 448.579 155.432 448.376 155.331C448.345 155.315 448.313 155.3 448.282 155.284C448.076 155.175 447.869 155.058 447.666 154.941C447.646 154.929 447.623 154.917 447.604 154.906C447.393 154.781 447.186 154.652 446.983 154.523C446.972 154.515 446.956 154.508 446.945 154.496C446.734 154.359 446.527 154.219 446.324 154.071C446.317 154.067 446.309 154.059 446.305 154.055C446.098 153.907 445.895 153.751 445.693 153.595H445.685C445.478 153.427 445.279 153.259 445.08 153.084C444.998 153.009 444.916 152.935 444.835 152.861C444.725 152.764 444.616 152.666 444.511 152.569C444.507 152.565 444.503 152.561 444.495 152.553C444.347 152.413 444.207 152.264 444.062 152.12C444.016 152.073 443.965 152.026 443.918 151.976C443.731 151.777 443.548 151.578 443.372 151.371C443.372 151.371 443.372 151.367 443.368 151.363C443.314 151.301 443.267 151.234 443.212 151.172H439.745C439.761 151.191 439.772 151.215 439.788 151.238C439.917 151.433 440.049 151.628 440.186 151.82C440.291 151.964 440.396 152.108 440.506 152.253C440.525 152.276 440.541 152.299 440.56 152.323C440.654 152.444 440.747 152.565 440.845 152.686C440.864 152.709 440.884 152.736 440.907 152.76C441.009 152.889 441.114 153.013 441.219 153.138C441.231 153.15 441.239 153.162 441.251 153.177C441.492 153.458 441.742 153.731 441.999 154C442.011 154.012 442.027 154.028 442.038 154.039C442.151 154.157 442.265 154.27 442.378 154.383C442.401 154.406 442.428 154.434 442.456 154.457C442.561 154.562 442.67 154.664 442.779 154.765C442.803 154.789 442.83 154.812 442.853 154.835C442.978 154.952 443.103 155.066 443.232 155.175C443.239 155.179 443.243 155.187 443.251 155.19C443.528 155.432 443.813 155.666 444.101 155.889C444.129 155.908 444.156 155.932 444.183 155.951C444.3 156.041 444.413 156.127 444.534 156.213C444.569 156.24 444.604 156.263 444.64 156.291C444.757 156.376 444.874 156.458 444.991 156.54C445.022 156.56 445.053 156.583 445.084 156.603C445.384 156.81 445.689 157.005 446.001 157.196C446.02 157.207 446.04 157.219 446.059 157.231C446.192 157.309 446.324 157.387 446.461 157.465C446.5 157.488 446.543 157.512 446.582 157.535C446.699 157.602 446.816 157.664 446.937 157.726C446.98 157.75 447.026 157.773 447.069 157.797C447.194 157.863 447.315 157.925 447.444 157.984C447.479 158.003 447.518 158.019 447.553 158.038C447.877 158.198 448.208 158.347 448.54 158.487C448.582 158.503 448.622 158.522 448.664 158.538C448.789 158.589 448.914 158.639 449.039 158.686C449.093 158.706 449.144 158.729 449.199 158.749C449.316 158.791 449.437 158.838 449.554 158.877C449.608 158.897 449.659 158.916 449.713 158.932C449.846 158.979 449.979 159.022 450.111 159.065C450.15 159.076 450.189 159.092 450.228 159.104C450.404 159.158 450.575 159.209 450.751 159.26C450.774 159.267 450.802 159.271 450.825 159.279C450.973 159.322 451.121 159.361 451.273 159.396C451.328 159.412 451.387 159.424 451.441 159.439C451.562 159.47 451.683 159.498 451.808 159.525C451.87 159.541 451.933 159.552 451.995 159.568C452.116 159.595 452.237 159.619 452.362 159.642C452.42 159.654 452.479 159.665 452.537 159.677C452.685 159.704 452.833 159.728 452.982 159.751C453.013 159.755 453.048 159.763 453.079 159.767C453.262 159.794 453.442 159.821 453.625 159.845C453.676 159.853 453.723 159.857 453.773 159.86C453.906 159.876 454.043 159.892 454.179 159.903C454.245 159.911 454.308 159.915 454.374 159.919C454.495 159.931 454.62 159.939 454.741 159.946C454.807 159.95 454.877 159.954 454.943 159.958C455.072 159.966 455.201 159.97 455.33 159.978C455.388 159.978 455.446 159.981 455.509 159.985C455.696 159.989 455.883 159.993 456.071 159.993C462.884 159.993 468.89 156.482 472.384 151.172H468.929C465.856 154.859 461.23 157.211 456.071 157.211H456.067Z" fill="#D6CFC9"/>
<path d="M466.005 123.657C465.977 123.641 465.946 123.622 465.919 123.606C465.806 123.54 465.689 123.473 465.572 123.407C465.545 123.392 465.513 123.376 465.482 123.356C465.365 123.29 465.248 123.228 465.127 123.165C465.1 123.15 465.069 123.134 465.041 123.118C464.921 123.056 464.796 122.994 464.671 122.931C464.648 122.919 464.62 122.908 464.597 122.892C464.464 122.826 464.332 122.763 464.195 122.701C464.179 122.693 464.164 122.685 464.144 122.678C463.536 122.401 462.908 122.151 462.269 121.936C462.233 121.925 462.202 121.917 462.167 121.905C462.042 121.862 461.918 121.823 461.793 121.784C461.746 121.768 461.695 121.757 461.648 121.741C461.539 121.706 461.426 121.675 461.317 121.644C461.262 121.628 461.204 121.612 461.145 121.597C461.04 121.57 460.939 121.542 460.833 121.515C460.771 121.499 460.709 121.484 460.646 121.468C460.545 121.445 460.447 121.421 460.346 121.398C460.279 121.382 460.213 121.371 460.147 121.355C460.049 121.335 459.952 121.312 459.854 121.293C459.784 121.281 459.718 121.265 459.648 121.254C459.55 121.234 459.453 121.218 459.355 121.203C459.285 121.191 459.215 121.179 459.145 121.168C459.047 121.152 458.95 121.136 458.852 121.125C458.782 121.113 458.712 121.105 458.638 121.094C458.54 121.082 458.443 121.07 458.341 121.058C458.271 121.051 458.197 121.043 458.127 121.035C458.025 121.023 457.928 121.016 457.826 121.008C457.756 121 457.686 120.996 457.616 120.988C457.51 120.98 457.405 120.973 457.3 120.965C457.234 120.961 457.167 120.957 457.101 120.953C456.984 120.945 456.871 120.941 456.754 120.937C456.695 120.937 456.641 120.934 456.582 120.93C456.407 120.926 456.235 120.922 456.06 120.922C453.279 120.922 450.635 121.511 448.236 122.564C449.582 123.064 450.912 123.594 452.234 124.152C453.462 123.864 454.742 123.708 456.06 123.708C456.333 123.708 456.602 123.715 456.875 123.727C456.898 123.727 456.918 123.727 456.941 123.727C457.199 123.739 457.452 123.762 457.705 123.786C457.741 123.786 457.776 123.793 457.807 123.793C458.053 123.821 458.294 123.852 458.536 123.887C458.579 123.895 458.618 123.899 458.661 123.907C458.899 123.942 459.133 123.985 459.367 124.031C459.41 124.039 459.453 124.051 459.5 124.059C459.73 124.105 459.96 124.16 460.186 124.219C460.229 124.23 460.276 124.242 460.319 124.254C460.545 124.312 460.771 124.379 460.993 124.445C461.036 124.457 461.075 124.472 461.118 124.484C461.344 124.554 461.567 124.632 461.785 124.71C461.82 124.722 461.855 124.738 461.886 124.749C462.093 124.827 462.3 124.909 462.506 124.995C462.545 125.011 462.584 125.026 462.62 125.042C462.822 125.128 463.021 125.217 463.22 125.311C463.267 125.334 463.314 125.354 463.36 125.377C463.555 125.471 463.747 125.569 463.934 125.67C463.988 125.701 464.047 125.729 464.102 125.76H465.342C465.361 125.76 465.385 125.76 465.404 125.76L466.282 123.809C466.188 123.75 466.094 123.692 466.001 123.637L466.005 123.657Z" fill="#D6CFC9"/>
<path d="M473.914 132.545C473.801 132.291 473.684 132.041 473.559 131.792C473.551 131.776 473.543 131.76 473.536 131.741C473.411 131.491 473.282 131.249 473.146 131.003C473.138 130.992 473.13 130.98 473.126 130.964C472.989 130.719 472.845 130.473 472.693 130.231C472.693 130.231 472.693 130.231 472.693 130.227C472.081 129.236 471.387 128.304 470.611 127.441C470.049 126.813 469.441 126.228 468.805 125.678L468.512 125.935L468.571 125.471C468.271 125.221 467.962 124.976 467.65 124.742C467.643 124.738 467.639 124.734 467.631 124.726C467.506 124.632 467.381 124.543 467.253 124.453C467.237 124.441 467.221 124.433 467.206 124.422C467.12 124.359 467.03 124.301 466.941 124.242L465.841 125.795C469.136 126.045 471.73 128.791 471.73 132.15V132.56H473.926C473.926 132.56 473.918 132.545 473.918 132.537L473.914 132.545Z" fill="#D6CFC9"/>
<path d="M441.31 132.569C441.388 132.424 441.469 132.284 441.551 132.14C440.65 131.843 439.749 131.558 438.841 131.293C438.618 131.71 438.412 132.136 438.221 132.569H441.313H441.31Z" fill="#D6CFC9"/>
<path d="M480.006 149.446C479.44 150.472 478.348 151.167 477.092 151.167H472.381C468.887 156.477 462.881 159.988 456.067 159.988C455.88 159.988 455.693 159.988 455.506 159.98C455.447 159.98 455.389 159.976 455.326 159.972C455.198 159.968 455.069 159.961 454.94 159.953C454.874 159.949 454.804 159.945 454.737 159.941C454.617 159.933 454.492 159.922 454.371 159.914C454.305 159.906 454.238 159.902 454.176 159.898C454.039 159.886 453.907 159.871 453.77 159.855C453.72 159.847 453.673 159.844 453.622 159.84C453.439 159.816 453.255 159.793 453.076 159.762C453.045 159.758 453.01 159.75 452.979 159.746C452.83 159.723 452.682 159.699 452.534 159.672C452.476 159.66 452.417 159.648 452.358 159.637C452.238 159.613 452.117 159.59 451.992 159.563C451.929 159.551 451.867 159.535 451.805 159.52C451.684 159.492 451.563 159.465 451.438 159.434C451.383 159.418 451.325 159.407 451.27 159.391C451.122 159.352 450.97 159.313 450.822 159.274C450.798 159.266 450.771 159.262 450.748 159.254C450.572 159.204 450.397 159.153 450.225 159.098C450.186 159.087 450.147 159.071 450.108 159.059C449.976 159.016 449.843 158.974 449.71 158.927C449.656 158.907 449.605 158.888 449.55 158.872C449.43 158.829 449.313 158.786 449.196 158.743C449.141 158.724 449.09 158.704 449.036 158.681C448.911 158.634 448.786 158.583 448.661 158.533C448.618 158.517 448.579 158.498 448.537 158.482C448.201 158.341 447.873 158.193 447.55 158.033C447.515 158.014 447.476 157.998 447.441 157.979C447.316 157.916 447.191 157.854 447.066 157.791C447.023 157.768 446.976 157.745 446.934 157.721C446.817 157.659 446.696 157.592 446.579 157.53C446.54 157.507 446.497 157.483 446.458 157.46C446.325 157.382 446.189 157.304 446.056 157.226C446.037 157.214 446.017 157.202 445.998 157.191C445.686 157.003 445.381 156.804 445.081 156.597C445.05 156.578 445.019 156.555 444.987 156.535C444.87 156.453 444.754 156.371 444.637 156.285C444.601 156.262 444.566 156.235 444.531 156.207C444.414 156.122 444.297 156.032 444.18 155.946C444.153 155.926 444.126 155.903 444.098 155.884C443.81 155.657 443.525 155.423 443.248 155.185C443.24 155.181 443.236 155.173 443.229 155.17C443.1 155.056 442.975 154.943 442.85 154.83C442.827 154.807 442.8 154.783 442.776 154.76C442.667 154.658 442.558 154.557 442.452 154.452C442.425 154.428 442.402 154.401 442.374 154.378C442.261 154.264 442.148 154.151 442.035 154.034C442.023 154.023 442.008 154.007 441.996 153.995C441.739 153.73 441.489 153.453 441.247 153.172C441.236 153.16 441.228 153.149 441.216 153.133C441.111 153.008 441.006 152.883 440.904 152.755C440.885 152.731 440.865 152.704 440.842 152.68C440.744 152.559 440.651 152.439 440.557 152.318C440.538 152.294 440.522 152.271 440.502 152.247C440.393 152.107 440.288 151.963 440.183 151.814C436.384 156.601 433.05 162.001 430.468 168.072H483.656V151.978L483.133 151.998L483.656 151.873V148.467L479.998 149.442L480.006 149.446Z" fill="#E3E3E3"/>
<path d="M483.664 127.318V123.486L480.419 126.814L483.664 127.318Z" fill="#E5E5E5"/>
<path d="M483.664 136.665L477.092 131.11L481.511 129.584H475.591L478.547 124.848L473.555 128.46L473.68 125.889C472.67 126.385 471.644 126.9 470.606 127.442C471.379 128.304 472.077 129.237 472.689 130.228V130.232C472.837 130.474 472.982 130.719 473.122 130.965C473.13 130.977 473.138 130.989 473.141 131.004C473.274 131.246 473.407 131.492 473.531 131.742C473.539 131.757 473.547 131.773 473.555 131.792C473.68 132.038 473.797 132.292 473.91 132.545C473.91 132.553 473.918 132.561 473.918 132.569H477.088C478.925 132.569 480.419 134.059 480.419 135.897V147.839C480.419 148.097 480.388 148.346 480.333 148.584L483.664 146.251V136.665Z" fill="#E5E5E5"/>
<path d="M481.511 131.539L483.664 132.838V131.207L481.511 131.539Z" fill="#E5E5E5"/>
<path d="M466.933 124.246C467.022 124.305 467.108 124.367 467.198 124.426C467.213 124.437 467.229 124.445 467.245 124.457C467.373 124.547 467.498 124.636 467.623 124.73C467.631 124.734 467.635 124.738 467.642 124.746C467.958 124.98 468.263 125.226 468.563 125.475L469.101 121.176L466.933 124.246Z" fill="#D6CFC9"/>
<path d="M473.914 121.176L468.805 125.678C469.444 126.228 470.049 126.817 470.61 127.442C471.648 126.895 472.673 126.38 473.684 125.889L473.914 121.176Z" fill="#D6CFC9"/>
<path d="M430.475 168.068C433.057 161.997 436.392 156.597 440.19 151.81C440.054 151.619 439.921 151.428 439.792 151.229C439.777 151.209 439.765 151.186 439.75 151.162H436.302C434.465 151.162 432.975 149.672 432.975 147.834V135.892C432.975 134.054 434.465 132.564 436.302 132.564H438.217C438.408 132.131 438.615 131.706 438.837 131.288C435.444 130.301 431.981 129.529 428.471 128.975V168.068H430.479H430.475Z" fill="#D6CFC9"/>
<path d="M428.471 117.617C435.241 118.558 441.879 120.216 448.248 122.572C450.642 121.519 453.29 120.93 456.071 120.93C456.247 120.93 456.418 120.93 456.594 120.937C456.652 120.937 456.707 120.941 456.765 120.945C456.882 120.949 456.999 120.953 457.112 120.961C457.179 120.961 457.245 120.969 457.311 120.973C457.417 120.98 457.522 120.984 457.627 120.996C457.697 121 457.768 121.008 457.838 121.015C457.939 121.023 458.041 121.035 458.138 121.043C458.208 121.051 458.282 121.058 458.353 121.066C458.45 121.078 458.551 121.09 458.649 121.101C458.719 121.109 458.793 121.121 458.863 121.132C458.961 121.148 459.058 121.16 459.156 121.175C459.226 121.187 459.296 121.199 459.366 121.211C459.464 121.226 459.561 121.246 459.659 121.261C459.729 121.273 459.796 121.289 459.866 121.3C459.963 121.32 460.061 121.339 460.158 121.363C460.225 121.378 460.291 121.39 460.357 121.406C460.459 121.429 460.56 121.452 460.657 121.476C460.72 121.491 460.782 121.507 460.845 121.523C460.95 121.55 461.055 121.577 461.157 121.605C461.215 121.62 461.27 121.636 461.328 121.651C461.441 121.683 461.55 121.714 461.66 121.749C461.706 121.765 461.757 121.776 461.804 121.792C461.929 121.831 462.054 121.87 462.178 121.913C462.21 121.924 462.245 121.932 462.28 121.944C462.919 122.159 463.547 122.408 464.156 122.685C464.171 122.693 464.187 122.701 464.206 122.709C464.339 122.771 464.476 122.834 464.608 122.9C464.632 122.912 464.659 122.923 464.682 122.939C464.807 123.001 464.928 123.064 465.053 123.126C465.08 123.142 465.111 123.157 465.139 123.173C465.256 123.235 465.376 123.298 465.493 123.364C465.521 123.38 465.552 123.395 465.583 123.415C465.7 123.481 465.813 123.548 465.93 123.614C465.958 123.629 465.989 123.649 466.016 123.665C466.11 123.719 466.203 123.778 466.297 123.836L469.908 115.795L470.727 121.187C470.727 121.187 475.949 114.032 476.682 114.871C477.416 115.709 475.598 123.419 475.598 123.419L483.675 119.673V117.27L478.558 119.318C478.558 119.318 479.202 116.232 479.896 112.861H475.879C473.765 115.92 471.87 118.624 471.87 118.624L469.546 112.861H468.422L464.164 119.365C464.148 118.955 464.479 116.435 464.99 112.861H428.482V117.629L428.471 117.617Z" fill="#D6CFC9"/>
<path d="M441.664 132.568V132.178C441.625 132.166 441.586 132.15 441.547 132.139C441.466 132.279 441.384 132.423 441.306 132.568H441.664Z" fill="#F2F2F2"/>
<path d="M443.377 151.367C443.556 151.574 443.735 151.777 443.923 151.972C443.969 152.022 444.02 152.065 444.067 152.116C444.207 152.26 444.352 152.409 444.5 152.549C444.504 152.553 444.508 152.557 444.515 152.565C444.629 152.097 444.757 151.632 444.89 151.172H443.217C443.271 151.234 443.318 151.301 443.373 151.363C443.373 151.363 443.373 151.363 443.377 151.371V151.367Z" fill="#F2F2F2"/>
<path d="M463.364 125.391C463.317 125.367 463.27 125.348 463.224 125.324C463.025 125.231 462.826 125.141 462.623 125.055C462.584 125.039 462.545 125.024 462.51 125.008C462.307 124.922 462.1 124.84 461.89 124.762C461.855 124.751 461.824 124.735 461.788 124.723C461.566 124.641 461.344 124.567 461.121 124.497C461.079 124.485 461.04 124.47 460.997 124.458C460.774 124.388 460.548 124.325 460.322 124.267C460.279 124.255 460.232 124.244 460.189 124.232C459.963 124.173 459.733 124.123 459.503 124.072C459.46 124.064 459.417 124.052 459.37 124.045C459.136 123.998 458.902 123.955 458.664 123.92C458.622 123.912 458.583 123.908 458.54 123.9C458.298 123.865 458.056 123.834 457.81 123.807C457.775 123.807 457.74 123.799 457.709 123.799C457.455 123.775 457.202 123.756 456.945 123.74C456.921 123.74 456.902 123.74 456.878 123.74C456.609 123.729 456.336 123.721 456.063 123.721C454.745 123.721 453.47 123.877 452.237 124.165C453.446 124.677 454.644 125.215 455.825 125.781H464.097C464.043 125.749 463.984 125.722 463.929 125.691C463.738 125.59 463.547 125.492 463.356 125.398L463.364 125.391Z" fill="#F2F2F2"/>
<path d="M444.835 152.861C444.917 152.935 444.999 153.013 445.081 153.084C445.28 153.255 445.479 153.423 445.686 153.587H445.693C445.892 153.751 446.095 153.907 446.306 154.055C446.314 154.059 446.321 154.067 446.325 154.071C446.528 154.215 446.735 154.359 446.945 154.496C446.957 154.504 446.973 154.512 446.984 154.523C447.187 154.656 447.394 154.785 447.604 154.906C447.624 154.917 447.647 154.929 447.667 154.941C447.87 155.058 448.076 155.175 448.283 155.284C448.314 155.3 448.345 155.315 448.377 155.331C448.576 155.436 448.778 155.538 448.985 155.631C449.028 155.651 449.071 155.67 449.11 155.69C449.305 155.78 449.504 155.865 449.703 155.951C449.757 155.975 449.812 155.994 449.866 156.018C450.058 156.096 450.249 156.17 450.44 156.236C450.506 156.259 450.576 156.283 450.643 156.306C450.826 156.369 451.009 156.431 451.196 156.49C451.278 156.513 451.364 156.536 451.446 156.56C451.621 156.611 451.793 156.661 451.972 156.704C452.07 156.728 452.171 156.751 452.269 156.774C452.433 156.813 452.596 156.852 452.76 156.884C452.877 156.907 452.994 156.927 453.111 156.946C453.263 156.973 453.412 157.001 453.568 157.024C453.704 157.044 453.844 157.059 453.985 157.079C454.117 157.094 454.254 157.114 454.387 157.129C454.558 157.145 454.73 157.157 454.901 157.168C455.007 157.176 455.116 157.188 455.221 157.192C455.502 157.207 455.783 157.211 456.067 157.211C461.231 157.211 465.853 154.859 468.926 151.172H444.886C444.75 151.632 444.625 152.097 444.512 152.565C444.617 152.666 444.726 152.76 444.835 152.857V152.861Z" fill="#EDEDED"/>
<path d="M487.622 127.934L493.612 128.863V125.344L490.028 125.515C489.225 125.75 488.422 125.987 487.622 126.233V127.934Z" fill="#F4F4F4"/>
<path d="M487.622 130.591V135.226L493.612 138.835V136.287L489.439 133.876L493.612 132.362V129.662L487.622 130.591Z" fill="#F4F4F4"/>
<path d="M487.622 147.414V150.941L493.612 149.529V145.814L487.622 147.414Z" fill="#F4F4F4"/>
<path d="M487.622 172.028H424.508V160.799C422.449 162.489 420.452 164.19 418.518 165.895V172.726C418.518 175.648 420.893 178.024 423.814 178.024H488.316C491.237 178.024 493.612 175.648 493.612 172.726V151.58L487.622 151.818V172.028Z" fill="#F4F4F4"/>
<path d="M489.868 141.912L487.622 140.012V143.484L489.868 141.912Z" fill="#F4F4F4"/>
<path d="M471.55 108.895H471.839L475.528 102.902H471.117C471.32 105.758 471.484 108.002 471.55 108.895Z" fill="#F7F7F7"/>
<path d="M481.569 104.323C481.468 104.623 480.189 106.551 478.59 108.895H480.696C481.254 106.141 481.675 104.003 481.569 104.323Z" fill="#F7F7F7"/>
<path d="M424.512 128.449C422.527 128.23 420.526 128.078 418.521 128V165.895C420.456 164.19 422.453 162.489 424.512 160.8V128.449Z" fill="#F7F7F7"/>
<path d="M488.32 102.902H486.557L485.056 108.134L492.848 105.473C491.92 103.936 490.239 102.906 488.316 102.906L488.32 102.902Z" fill="#F7F7F7"/>
<path d="M490.028 125.516L487.622 125.633V126.233C488.418 125.988 489.221 125.754 490.028 125.516Z" fill="#F7F7F7"/>
<path d="M418.521 108.197V116.757C420.526 116.827 422.523 116.963 424.512 117.154V108.891H465.552C465.828 107.003 466.129 104.974 466.441 102.898H423.818C420.897 102.898 418.521 105.274 418.521 108.197Z" fill="#F7F7F7"/>
<path d="M490.45 116.521L487.622 119.424V123.365L493.612 117.786V113.279L487.622 115.679V117.832L490.45 116.521Z" fill="#F7F7F7"/>
<path d="M181.78 302.865L192.439 277.037L168.107 290.376L182.865 274.899L145.214 279.967L188.481 265.223L171.434 257.9H181.777C181.777 257.9 178.091 248.322 178.926 249.574C179.756 250.823 197.185 260.401 197.185 260.401C196.632 260.174 186.269 229.513 186.269 229.513L189.487 251.517L159.781 228.67L174.347 251.24L123.76 253.054L170.182 263.194C170.182 263.194 112.532 288.3 112.224 288.3C111.916 288.3 165.603 281.637 165.603 281.637C165.603 281.637 145.624 309.119 147.289 308.284C148.954 307.453 177.674 289.131 177.674 290.38C177.674 291.628 171.43 327.019 173.512 325.357C175.595 323.691 191.257 294.547 191.257 294.547L181.777 302.872L181.78 302.865Z" fill="#F9C900"/>
<path d="M184.343 255.371L189.616 261.961C186.531 261.251 181.757 260.322 181.757 260.322L192.303 265.32L169.687 274.051C169.932 274.051 179.171 273.326 186.644 272.737C183.996 275.628 177.459 282.806 177.459 282.806L196.051 271.995C196.051 271.995 188.052 292.872 188.488 292.732C188.921 292.591 207.29 269.76 207.29 269.76L196.554 267.887L202.989 266.982L196.277 265.215L200.493 264.762C200.407 264.622 184.347 255.367 184.347 255.367L184.343 255.371Z" fill="#F4A300"/>
<path d="M194.783 313.563C194.783 313.563 200.488 349.355 200.488 346.858C200.488 344.361 202.29 280.447 202.29 280.447C202.567 281.696 179.261 336.449 179.261 336.449L194.783 313.563Z" fill="#F9C900"/>
<path d="M438.217 132.568H436.302C434.465 132.568 432.976 134.059 432.976 135.896V147.839C432.976 149.676 434.465 151.167 436.302 151.167H477.092C478.348 151.167 479.44 150.472 480.006 149.446L478.547 149.836L480.333 148.588C480.388 148.346 480.419 148.096 480.419 147.843V135.9C480.419 134.063 478.929 132.572 477.088 132.572H471.722V136.322H474.089C475.513 136.322 476.671 137.476 476.671 138.904V144.85C476.671 146.274 475.517 147.433 474.089 147.433H439.294C437.87 147.433 436.712 146.278 436.712 144.85V138.904C436.712 137.48 437.866 136.322 439.294 136.322H441.661V132.572H438.213L438.217 132.568Z" fill="#636363"/>
<path d="M424.512 128.449C425.37 128.543 426.224 128.652 427.079 128.773C427.543 128.839 428.007 128.905 428.471 128.98C431.981 129.534 435.444 130.306 438.837 131.293C439.746 131.558 440.651 131.843 441.548 132.14C441.587 132.151 441.626 132.167 441.665 132.179V136.314H439.297C437.874 136.314 436.715 137.469 436.715 138.897V144.843C436.715 146.267 437.87 147.426 439.297 147.426H474.093C475.517 147.426 476.675 146.271 476.675 144.843V138.897C476.675 137.473 475.52 136.314 474.093 136.314H471.726V132.159C471.726 128.8 469.128 126.053 465.837 125.804L464.643 127.493L465.412 125.78C465.392 125.78 465.369 125.78 465.349 125.78H455.833C454.648 125.215 453.45 124.676 452.245 124.165C450.927 123.607 449.593 123.077 448.248 122.577C441.879 120.225 435.241 118.566 428.471 117.622C428.007 117.56 427.543 117.501 427.079 117.443C426.224 117.337 425.37 117.24 424.512 117.158C422.523 116.963 420.527 116.83 418.522 116.76C417.668 116.729 416.81 116.713 415.956 116.705C406.76 116.62 397.485 117.821 388.457 120.357C365.431 126.826 346.727 141.148 335.791 160.679C324.08 181.591 325.46 204.758 329.391 227.882C326.681 227.098 323.912 226.427 321.096 225.873C298.503 221.433 276.932 225.596 261.906 237.293C249.258 247.14 240.865 262.738 238.88 280.092C236.868 297.668 241.571 314.515 252.125 327.534C262.062 339.789 276.043 346.753 291.499 347.147C307.937 347.564 324.158 340.694 334.879 328.763C355.295 306.045 350.167 275.882 344.352 246.407C354.468 252.259 362.756 260.077 367.865 268.973C380.77 291.449 383.126 318.307 374.167 340.811C365.88 361.625 348.548 376.919 325.363 383.875C314.505 387.133 304.034 388.744 294.178 388.744C276.804 388.744 261.344 383.727 249.106 373.868C224.723 354.228 213.842 317.226 217.633 266.85C216.865 267.588 215.831 268.052 214.685 268.071L211.982 268.122L211.724 268.196L205.66 274.049C200.391 342.82 222.914 367.197 242.063 382.619C256.356 394.132 274.214 399.992 294.128 399.992C305.083 399.992 316.658 398.217 328.6 394.636C355.139 386.673 375.033 369.03 384.615 344.962C394.833 319.294 392.216 288.792 377.619 263.362C370.041 250.164 357.226 239.278 341.614 232.33C337.273 209.054 334.656 185.703 345.6 166.165C355.069 149.256 371.371 136.829 391.503 131.172C399.541 128.913 407.793 127.848 415.964 127.93C416.822 127.938 417.676 127.957 418.53 127.992C420.534 128.074 422.535 128.223 424.52 128.441L424.512 128.449ZM326.521 321.241C318.097 330.616 304.778 336.23 291.784 335.903C283.211 335.684 270.887 332.824 260.853 320.445C252.218 309.794 248.377 295.912 250.042 281.364C251.688 266.995 258.524 254.163 268.805 246.157C277.904 239.072 290.103 235.361 303.577 235.361C308.55 235.361 313.698 235.869 318.928 236.895C323.323 237.757 327.609 238.97 331.727 240.488C332.055 242.15 332.383 243.808 332.71 245.462C338.463 274.486 343.899 301.897 326.521 321.237V321.241Z" fill="#353535"/>
<path d="M189.584 191.075V169.426C189.584 167.701 190.98 166.305 192.704 166.305H189.392C187.669 166.305 186.272 167.701 186.272 169.426V191.075C186.272 192.8 187.669 194.196 189.392 194.196H192.704C190.98 194.196 189.584 192.8 189.584 191.075Z" fill="#474747"/>
<path d="M193.874 166.301H192.704C190.98 166.301 189.584 167.698 189.584 169.422V191.071C189.584 192.796 190.98 194.193 192.704 194.193H193.004C192.883 185.695 193.125 176.41 193.874 166.297V166.301Z" fill="#1A1A1A"/>
<path d="M205.239 124.855C195.695 176.78 198.64 212.662 202.883 235.646C202.899 235.135 202.914 234.639 202.93 234.16C203.971 204.395 214.404 187.178 223.05 174.646C221.467 163.059 218.659 151.694 213.928 140.855C211.51 135.323 208.601 129.943 205.239 124.852V124.855Z" fill="#C4C1BB"/>
<path d="M234.925 171.023C234.941 170.995 234.96 170.972 234.976 170.945C235.124 170.722 235.272 170.504 235.417 170.285C235.456 170.223 235.499 170.164 235.538 170.102C235.666 169.907 235.791 169.716 235.916 169.524C235.967 169.443 236.021 169.365 236.072 169.286C236.185 169.111 236.298 168.935 236.411 168.76C236.47 168.666 236.532 168.573 236.591 168.479C236.692 168.315 236.793 168.155 236.895 167.991C236.957 167.89 237.02 167.784 237.082 167.683C237.176 167.531 237.269 167.375 237.359 167.223C237.425 167.113 237.488 167.004 237.554 166.895C237.64 166.751 237.725 166.602 237.807 166.458C237.874 166.341 237.94 166.228 238.002 166.111C238.08 165.97 238.158 165.834 238.236 165.693C238.303 165.572 238.365 165.455 238.431 165.334C238.502 165.202 238.576 165.065 238.646 164.932C238.712 164.808 238.775 164.687 238.837 164.562C238.903 164.433 238.97 164.304 239.032 164.176C239.094 164.047 239.153 163.922 239.215 163.793C239.274 163.668 239.336 163.544 239.391 163.419C239.449 163.29 239.508 163.157 239.566 163.029C239.621 162.908 239.676 162.787 239.726 162.666C239.785 162.529 239.839 162.396 239.894 162.26C239.941 162.143 239.991 162.026 240.034 161.913C240.089 161.772 240.14 161.632 240.19 161.491C240.229 161.382 240.272 161.269 240.311 161.16C240.362 161.011 240.413 160.863 240.459 160.715C240.495 160.613 240.53 160.508 240.561 160.407C240.611 160.243 240.658 160.075 240.705 159.911C240.728 159.825 240.756 159.74 240.779 159.654C240.845 159.404 240.912 159.15 240.966 158.897C246.208 135.913 236.52 132.406 238.747 120.034C240.58 109.855 249.718 103.991 254.464 101.584C249.983 101.943 245.299 102.193 240.44 102.321C236.197 106.254 232.285 111.669 230.998 118.817C229.785 125.551 231.294 130.467 232.628 134.801C234.262 140.127 235.955 145.636 233.279 157.367C232.382 161.304 229.27 165.744 225.331 171.366C224.59 172.423 223.826 173.516 223.046 174.643C223.6 178.701 224.005 182.786 224.29 186.882C224.29 186.882 224.29 186.878 224.294 186.874C227.991 180.679 231.821 175.607 234.921 171.015L234.925 171.023Z" fill="#C2B7A3"/>
<path d="M210.207 101.279C210.121 101.271 210.039 101.264 209.953 101.256L202.766 121.282C203.616 122.457 204.439 123.647 205.238 124.852C206.603 117.435 208.222 109.687 210.125 101.607C210.152 101.494 210.18 101.389 210.203 101.275L210.207 101.279Z" fill="#C2B7A3"/>
<path d="M233.283 157.371C235.959 145.639 234.266 140.13 232.632 134.805C231.298 130.47 229.789 125.554 231.002 118.82C232.289 111.677 236.2 106.258 240.444 102.325C237.948 102.391 235.409 102.426 232.819 102.426C225.873 102.426 218.198 101.997 210.203 101.275C210.176 101.389 210.148 101.494 210.125 101.607C208.218 109.691 206.599 117.435 205.238 124.852C208.6 129.944 211.509 135.324 213.927 140.856C218.662 151.69 221.466 163.059 223.05 174.647C223.83 173.519 224.594 172.427 225.335 171.37C229.274 165.747 232.386 161.311 233.283 157.371Z" fill="#A9A398"/>
<path d="M193.944 127.734C192.361 122.487 188.633 108.203 191.819 99.2143C190.707 99.0699 189.6 98.9178 188.488 98.7656C185.528 107.774 189.175 121.745 190.739 126.919C191.113 128.163 192.068 129.092 193.238 129.353L195.758 129.919C194.912 129.505 194.245 128.721 193.948 127.734H193.944Z" fill="#515151"/>
<path d="M193.414 99.4255C192.883 99.3553 192.353 99.289 191.822 99.2188C188.636 108.208 192.364 122.491 193.948 127.739C194.244 128.73 194.911 129.51 195.757 129.923C195.855 129.97 195.949 130.017 196.05 130.052C197.785 119.862 197.86 108.606 193.414 99.4255Z" fill="#474747"/>
<path d="M202.766 121.282L209.954 101.256C204.545 100.764 198.987 100.14 193.414 99.4258C197.856 108.61 197.786 119.862 196.05 130.052C196.179 130.099 196.312 130.142 196.444 130.173L198.25 130.579L199.346 130.825L202.77 121.286L202.766 121.282Z" fill="#1A1A1A"/>
<path d="M193.414 99.4262C198.987 100.14 204.545 100.764 209.954 101.256C210.04 101.264 210.122 101.272 210.208 101.279C218.203 102.001 225.878 102.43 232.824 102.43C235.409 102.43 237.952 102.395 240.448 102.329C245.308 102.2 249.992 101.95 254.473 101.592C258.15 101.299 261.692 100.932 265.088 100.503C291.293 97.1945 308.858 90.0977 312.704 82.997C314.33 79.9968 318.858 65.6042 318.858 51.2155C318.858 36.8268 314.33 22.4342 312.704 19.434C311.284 16.8161 307.996 14.1982 303.098 11.7676C303.176 11.8807 303.254 11.9939 303.32 12.107C304.868 14.6313 309.178 26.7298 309.178 38.8283C309.178 50.9268 304.868 63.0292 303.32 65.5496C298.309 73.7193 268.832 81.8851 227.27 81.8851C185.708 81.8851 116.732 67.6486 116.729 67.6486V85.494C116.729 85.494 152.222 93.7885 188.496 98.7668C189.608 98.919 190.715 99.0673 191.827 99.2155C192.357 99.2857 192.888 99.356 193.418 99.4223L193.414 99.4262Z" fill="#E5DED1"/>
<path d="M116.725 51.2265V21.1383C136.931 16.7764 193.453 5.96928 226.72 5.96928C251.341 5.96928 270.307 9.13338 282.537 12.9061C286.511 14.1312 289.557 17.3694 290.497 21.4231C291.343 25.071 292.041 29.4328 292.041 33.7635C292.041 39.5962 290.782 45.4835 289.584 49.6113C288.574 53.0914 286.031 55.9083 282.67 57.2621C273.52 60.949 253.42 65.7908 221.163 65.7908C188.906 65.7908 136.443 57.2465 116.729 53.505V65.7908V67.6557C116.729 67.6557 185.708 81.8922 227.27 81.8922C268.832 81.8922 298.313 73.7225 303.32 65.5567C304.868 63.0324 309.178 50.9339 309.178 38.8354C309.178 26.7369 304.868 14.6345 303.32 12.1141C303.25 12.001 303.176 11.8878 303.098 11.7747C289.818 5.18508 264.706 0 232.824 0C189.171 0 116.725 16.9325 116.725 16.9325V51.2265Z" fill="#A9A398"/>
<path d="M221.159 65.7864C253.42 65.7864 273.516 60.9446 282.666 57.2577C286.027 55.9039 288.57 53.087 289.58 49.6069C290.778 45.4791 292.037 39.5918 292.037 33.759C292.037 29.4284 291.343 25.0665 290.493 21.4186C289.549 17.365 286.507 14.1307 282.533 12.9017C270.299 9.12895 251.337 5.96484 226.716 5.96484C193.453 5.96484 136.931 16.772 116.721 21.1338V53.4967C136.439 57.2421 189.799 65.7825 221.155 65.7825L221.159 65.7864ZM227.43 11.0173C254.82 11.0173 272.116 14.9656 279.99 17.3182C282.459 18.0556 284.354 20.018 284.932 22.433C285.836 26.2058 286.312 29.8849 286.312 33.0724C286.312 37.0168 285.602 40.9261 284.896 43.8405C249.344 22.2497 170.385 22.2458 128.253 23.8883C153.509 18.8554 199.806 11.0173 227.426 11.0173H227.43Z" fill="#C4C1BB"/>
<path d="M116.724 67.6471V65.7822V16.9316H113.276V65.7861H108.464L103.838 18.8044V66.0241C101.791 66.3011 99.7822 66.8083 97.8478 67.5534L64.7212 80.2684C61.6402 81.4505 58.333 79.176 58.333 75.8753V95.5856C58.333 98.8863 61.6402 101.161 64.7212 99.9787L97.8478 87.2638C100.89 86.0933 104.123 85.4964 107.383 85.4964H116.72V67.651L116.724 67.6471Z" fill="#1A1A1A"/>
<path d="M64.7212 80.2685L97.8478 67.5535C99.7822 66.8123 101.795 66.3012 103.838 66.0242V52.1505H103.659C99.2596 52.1505 94.9462 52.8644 90.8434 54.269L69.9199 61.4282C66.952 62.4426 63.7657 60.4918 63.7657 57.6555V19.4248C63.7657 16.5923 66.952 14.6377 69.9199 15.6521L90.8434 22.8113C94.9501 24.2158 99.2635 24.9298 103.663 24.9298H103.842V18.8045L108.468 65.7862H113.28V16.9317H107.391C104.131 16.9317 100.898 16.3309 97.8556 15.1644L64.7212 2.44942C61.6402 1.26727 58.333 3.54184 58.333 6.8425V75.8715C58.333 79.1722 61.6402 81.4467 64.7212 80.2646V80.2685Z" fill="#474747"/>
<path d="M90.8433 22.8118L69.9198 15.6526C66.9519 14.6382 63.7656 16.589 63.7656 19.4253V57.6599C63.7656 60.4924 66.9519 62.447 69.9198 61.4327L90.8433 54.2734C94.95 52.8689 99.2595 52.1549 103.659 52.1549H103.838V24.9303H103.659C99.2595 24.9303 94.9461 24.2164 90.8394 22.8118H90.8433Z" fill="#5E5E5E"/>
<path d="M284.904 43.8408C285.61 40.9264 286.32 37.021 286.32 33.0727C286.32 29.8813 285.84 26.2061 284.939 22.4333C284.358 20.0183 282.467 18.0559 279.998 17.3185C272.124 14.9659 254.824 11.0176 227.438 11.0176C200.052 11.0176 153.525 18.8518 128.265 23.8886C170.396 22.2461 249.36 22.25 284.908 43.8408H284.904Z" fill="#E5DED1"/>
<path d="M238.755 120.037C236.528 132.404 246.215 135.912 240.974 158.899C240.915 159.153 240.853 159.403 240.787 159.656C240.763 159.742 240.736 159.828 240.712 159.914C240.666 160.078 240.619 160.245 240.568 160.409C240.537 160.511 240.498 160.616 240.467 160.718C240.42 160.866 240.369 161.014 240.319 161.162C240.28 161.272 240.237 161.385 240.198 161.494C240.147 161.634 240.096 161.775 240.042 161.915C239.995 162.032 239.948 162.149 239.901 162.263C239.847 162.399 239.792 162.532 239.734 162.668C239.683 162.789 239.628 162.91 239.574 163.031C239.515 163.16 239.461 163.293 239.398 163.421C239.34 163.546 239.281 163.671 239.223 163.796C239.16 163.921 239.102 164.049 239.039 164.178C238.977 164.307 238.911 164.436 238.844 164.564C238.782 164.689 238.72 164.81 238.653 164.935C238.583 165.068 238.513 165.2 238.439 165.337C238.376 165.458 238.31 165.575 238.244 165.696C238.166 165.832 238.088 165.973 238.01 166.113C237.944 166.226 237.881 166.343 237.815 166.461C237.733 166.605 237.647 166.749 237.561 166.897C237.499 167.007 237.433 167.116 237.366 167.225C237.277 167.377 237.183 167.533 237.089 167.686C237.027 167.787 236.965 167.892 236.902 167.994C236.801 168.158 236.699 168.318 236.598 168.481C236.54 168.575 236.481 168.669 236.419 168.762C236.309 168.938 236.196 169.114 236.079 169.289C236.029 169.367 235.978 169.449 235.923 169.527C235.799 169.718 235.67 169.913 235.545 170.105C235.506 170.167 235.463 170.225 235.424 170.288C235.28 170.506 235.132 170.725 234.983 170.947C234.968 170.975 234.948 170.998 234.933 171.025C231.832 175.617 228.002 180.689 224.305 186.885C224.301 186.893 224.294 186.904 224.29 186.912C224.091 187.248 223.888 187.591 223.689 187.934C223.685 187.942 223.681 187.95 223.673 187.958C221.86 191.075 220.093 194.477 218.479 198.234C218.451 198.301 218.42 198.367 218.393 198.433C218.256 198.749 218.124 199.073 217.991 199.393C217.94 199.514 217.89 199.635 217.839 199.76C217.718 200.052 217.601 200.353 217.484 200.649C217.422 200.805 217.359 200.957 217.301 201.114C217.192 201.394 217.082 201.679 216.977 201.964C216.911 202.144 216.841 202.319 216.774 202.499C216.673 202.772 216.575 203.049 216.474 203.326C216.404 203.521 216.334 203.72 216.263 203.919C216.17 204.188 216.076 204.457 215.983 204.73C215.909 204.941 215.838 205.152 215.768 205.366C215.678 205.631 215.593 205.905 215.507 206.174C215.433 206.396 215.363 206.622 215.292 206.849C215.21 207.114 215.128 207.383 215.047 207.652C214.976 207.887 214.902 208.124 214.832 208.362C214.754 208.628 214.676 208.897 214.598 209.166C214.528 209.412 214.458 209.662 214.387 209.911C214.313 210.181 214.243 210.45 214.169 210.719C214.099 210.976 214.033 211.234 213.966 211.495C213.896 211.765 213.83 212.038 213.764 212.307C213.697 212.572 213.631 212.841 213.569 213.111C213.502 213.384 213.44 213.657 213.377 213.934C213.315 214.211 213.253 214.488 213.19 214.769C213.132 215.046 213.069 215.319 213.011 215.6C212.952 215.888 212.894 216.177 212.835 216.466C212.781 216.743 212.726 217.02 212.672 217.301C212.613 217.597 212.558 217.898 212.504 218.198C212.453 218.479 212.402 218.76 212.352 219.041C212.297 219.349 212.246 219.657 212.196 219.969C212.149 220.25 212.102 220.535 212.059 220.82C212.009 221.14 211.962 221.46 211.915 221.784C211.872 222.068 211.833 222.349 211.79 222.638C211.743 222.97 211.7 223.305 211.657 223.641C211.622 223.926 211.583 224.21 211.548 224.499C211.505 224.842 211.47 225.19 211.431 225.541C211.4 225.826 211.365 226.11 211.338 226.399C211.299 226.762 211.268 227.129 211.232 227.499C211.205 227.78 211.178 228.057 211.154 228.342C211.119 228.732 211.092 229.13 211.061 229.524C211.041 229.789 211.018 230.055 210.998 230.324C210.967 230.765 210.944 231.217 210.917 231.662C210.905 231.892 210.889 232.119 210.877 232.349C210.842 233.032 210.811 233.722 210.788 234.417C210.675 237.682 210.624 241.744 210.608 245.903H218.872C218.884 241.744 218.935 237.682 219.052 234.417C220.643 188.898 245.63 174.736 249.238 158.915C254.479 135.931 244.792 132.424 247.019 120.052C249.25 107.657 262.311 101.657 265.084 100.514C261.687 100.943 258.146 101.31 254.468 101.602C249.722 104.009 240.584 109.873 238.751 120.052L238.755 120.037Z" fill="#A9A398"/>
<path d="M210.788 234.401C210.812 233.703 210.843 233.016 210.878 232.333C210.89 232.103 210.905 231.877 210.917 231.647C210.944 231.198 210.968 230.749 210.999 230.308C211.018 230.039 211.038 229.774 211.061 229.509C211.092 229.114 211.12 228.716 211.155 228.326C211.178 228.045 211.206 227.765 211.233 227.484C211.268 227.117 211.299 226.746 211.338 226.383C211.369 226.095 211.401 225.81 211.432 225.525C211.471 225.178 211.51 224.831 211.549 224.483C211.584 224.195 211.619 223.91 211.658 223.625C211.701 223.29 211.744 222.954 211.791 222.622C211.83 222.338 211.872 222.053 211.915 221.768C211.962 221.444 212.009 221.124 212.06 220.804C212.103 220.519 212.149 220.235 212.196 219.954C212.247 219.642 212.298 219.333 212.352 219.025C212.403 218.74 212.454 218.463 212.504 218.182C212.559 217.882 212.613 217.582 212.672 217.285C212.727 217.004 212.781 216.727 212.836 216.45C212.894 216.162 212.953 215.869 213.011 215.584C213.07 215.307 213.128 215.03 213.191 214.753C213.253 214.476 213.312 214.195 213.378 213.918C213.44 213.641 213.507 213.368 213.569 213.095C213.631 212.826 213.698 212.557 213.764 212.291C213.83 212.018 213.9 211.749 213.967 211.48C214.033 211.218 214.099 210.961 214.17 210.703C214.24 210.434 214.314 210.165 214.388 209.896C214.458 209.646 214.528 209.396 214.599 209.151C214.677 208.881 214.751 208.612 214.833 208.347C214.903 208.109 214.973 207.871 215.047 207.637C215.129 207.368 215.211 207.098 215.293 206.833C215.363 206.607 215.437 206.384 215.507 206.158C215.593 205.889 215.683 205.62 215.769 205.351C215.839 205.136 215.913 204.925 215.983 204.715C216.077 204.441 216.166 204.172 216.264 203.903C216.334 203.704 216.404 203.509 216.474 203.31C216.576 203.033 216.673 202.756 216.775 202.483C216.841 202.303 216.907 202.128 216.978 201.948C217.087 201.664 217.192 201.379 217.301 201.098C217.364 200.942 217.426 200.79 217.485 200.634C217.602 200.337 217.722 200.037 217.839 199.744C217.89 199.623 217.941 199.502 217.992 199.377C218.124 199.057 218.257 198.734 218.393 198.418C218.421 198.351 218.452 198.285 218.479 198.219C220.098 194.461 221.86 191.059 223.674 187.942C223.678 187.934 223.682 187.926 223.689 187.919C223.888 187.575 224.091 187.236 224.29 186.896C224.294 186.889 224.298 186.885 224.302 186.877C224.017 182.78 223.615 178.696 223.058 174.638C214.411 187.17 203.979 204.387 202.938 234.151C202.922 234.631 202.906 235.127 202.891 235.638C198.648 212.65 195.699 176.768 205.246 124.847C204.447 123.638 203.624 122.448 202.774 121.277L199.35 130.816L198.254 130.571C196.085 143.485 194.689 155.372 193.882 166.297C193.133 176.413 192.891 185.695 193.012 194.192C193.332 216.641 196.191 233.605 198.967 245.883H210.617C210.628 241.724 210.679 237.663 210.796 234.397L210.788 234.401Z" fill="#E5DED1"/>
<path d="M217.633 266.849C218.479 266.038 219.002 264.895 218.986 263.627C218.928 259.339 218.854 252.492 218.877 245.887H210.613C210.593 252.492 210.664 259.339 210.722 263.627C210.734 264.512 210.48 265.336 210.043 266.03C209.829 265.667 204.665 266.42 204.244 266.069C205.036 267.384 206.479 268.227 208.082 268.199L211.982 268.125L214.684 268.074C215.831 268.051 216.865 267.591 217.633 266.853V266.849Z" fill="#1A1A1A"/>
<path d="M210.04 266.034C210.481 265.34 210.734 264.512 210.718 263.631C210.66 259.343 210.586 252.496 210.609 245.891H198.96C200.867 254.322 202.735 260.541 203.718 264.805C203.819 265.246 203.991 265.659 204.209 266.034C204.209 266.05 204.221 266.061 204.237 266.073C204.658 266.424 209.825 265.671 210.036 266.034H210.04Z" fill="#474747"/>
<path d="M546.5 119.086L503.214 118.462L517.644 96.9994L495.32 104.623L492.852 105.466L485.06 108.126L486.561 102.895L487.298 100.327L496.186 69.3418L477.115 100.327L475.536 102.895L471.846 108.887L471.589 109.309C471.589 109.309 471.577 109.16 471.558 108.887C471.491 107.994 471.328 105.75 471.125 102.895C471.066 102.083 471.008 101.221 470.945 100.327C470.403 92.5556 469.736 82.3533 469.877 80.9994C469.998 79.829 468.379 90.1094 466.835 100.327C466.706 101.186 466.577 102.044 466.449 102.895C466.137 104.97 465.836 106.999 465.56 108.887C465.431 109.777 465.302 110.639 465.185 111.454C465.115 111.934 465.049 112.399 464.986 112.847C464.479 116.421 464.148 118.941 464.159 119.351L468.418 112.847L469.112 111.786L469.541 112.847L471.866 118.61C471.866 118.61 473.761 115.906 475.875 112.847C476.191 112.387 476.515 111.923 476.834 111.454C477.435 110.581 478.036 109.71 478.597 108.887C480.196 106.542 481.475 104.615 481.577 104.315C481.682 103.995 481.261 106.133 480.703 108.887C480.536 109.707 480.36 110.577 480.181 111.454C480.087 111.919 479.99 112.387 479.896 112.847C479.202 116.222 478.558 119.304 478.558 119.304L483.675 117.256L485.067 116.698L487.634 115.672L493.624 113.273L496.19 112.243L502.114 109.87L496.19 115.387L493.624 117.779L487.634 123.358L485.067 125.75L487.634 125.625L490.04 125.508L493.624 125.336L496.19 125.211L515.987 124.255L496.19 131.426L493.624 132.355L489.451 133.865L493.624 136.28L496.19 137.766L509.883 145.686L496.19 148.917L493.624 149.521L487.634 150.934L485.067 151.538L483.675 151.866L483.152 151.991L483.675 151.971L485.067 151.917L487.634 151.815L493.624 151.577L496.19 151.476L537.351 149.833L504.329 135.601L546.508 119.082L546.5 119.086Z" fill="#F9C900"/>
<path d="M469.105 121.176L468.567 125.475L468.508 125.94L468.801 125.682L473.91 121.18L473.68 125.893L473.555 128.464L478.547 124.851L475.591 129.588H481.511L477.092 131.113L483.664 136.669L485.056 137.843L487.622 140.012L489.869 141.912L487.622 143.485L485.056 145.283L483.664 146.259L480.333 148.592L478.547 149.84L480.006 149.45L483.664 148.475L485.056 148.104L487.622 147.417L493.613 145.818L496.179 145.131L501.639 143.672L496.179 140.383L493.613 138.834L487.622 135.225L485.056 133.676L483.664 132.837L481.511 131.538L483.664 131.203L485.056 130.988L487.622 130.59L493.613 129.662L496.179 129.264L493.613 128.866L487.622 127.937L485.056 127.539L483.664 127.325L480.419 126.821L483.664 123.493L485.056 122.065L487.622 119.432L490.45 116.533L487.622 117.844L485.056 119.034L483.664 119.678L475.587 123.423C475.587 123.423 477.404 115.714 476.671 114.875C475.938 114.036 470.716 121.192 470.716 121.192L469.897 115.8L466.285 123.841L465.408 125.791L464.64 127.504L465.833 125.815L466.933 124.262L469.101 121.192L469.105 121.176Z" fill="#F4A300"/>
<path d="M99.8922 238.139C97.8564 237.8 96.0741 237.768 94.6272 237.862C93.1842 237.944 92.061 238.147 91.3161 238.303C90.579 238.482 90.1851 238.58 90.1851 238.58C90.1851 238.58 90.5868 238.627 91.3434 238.713C91.7217 238.752 92.178 238.837 92.7084 238.912C92.9736 238.951 93.2583 239.017 93.5586 239.072C93.8628 239.126 94.1826 239.185 94.5141 239.27C95.8518 239.575 97.443 240.031 99.1551 240.757C99.5802 240.948 100.021 241.124 100.462 241.346C100.68 241.451 100.902 241.561 101.128 241.67C101.347 241.791 101.573 241.912 101.795 242.037C102.248 242.275 102.688 242.563 103.153 242.829C103.597 243.133 104.061 243.41 104.502 243.753C105.407 244.397 106.296 245.127 107.15 245.938C108.008 246.746 108.847 247.627 109.611 248.599C110.375 249.574 111.116 250.596 111.752 251.712C112.38 252.832 112.965 253.995 113.437 255.228C113.901 256.46 114.303 257.736 114.576 259.055C114.841 260.37 115.001 261.739 115.067 263.089C115.184 265.844 114.829 268.606 114.002 271.243C113.183 273.877 111.904 276.37 110.27 278.562C109.864 279.112 109.424 279.635 108.975 280.142C108.745 280.392 108.527 280.654 108.293 280.895C108.055 281.137 107.817 281.375 107.579 281.613C106.608 282.55 105.555 283.373 104.475 284.13C102.298 285.616 99.9468 286.728 97.5795 287.43C96.9906 287.622 96.3939 287.762 95.8089 287.906C95.5125 287.965 95.2161 288.023 94.9236 288.082L94.7052 288.125L94.596 288.144H94.5687C94.5687 288.144 94.4907 288.16 94.5999 288.152L94.5375 288.16L94.0539 288.23L93.5742 288.3C93.4143 288.324 93.2505 288.351 93.1218 288.359C92.8449 288.39 92.5719 288.418 92.3028 288.449C91.749 288.492 91.1718 288.527 90.6219 288.538C88.4028 288.593 86.3358 288.367 84.5223 287.981C82.701 287.606 81.1293 287.087 79.8501 286.584C79.2066 286.342 78.6489 286.073 78.1497 285.862C77.6622 285.624 77.2488 285.421 76.9095 285.253C76.2387 284.898 75.8838 284.707 75.8838 284.707C75.8838 284.707 76.1568 285.012 76.6638 285.581C77.1942 286.127 77.9898 286.935 79.1403 287.813C80.283 288.702 81.7728 289.686 83.6409 290.563C84.5691 291.016 85.6026 291.398 86.7141 291.769C87.2757 291.933 87.849 292.116 88.4535 292.245C88.7538 292.311 89.0619 292.381 89.37 292.452C89.682 292.506 89.9979 292.565 90.3177 292.619C90.6375 292.682 90.9612 292.721 91.2927 292.756C91.6242 292.791 91.9479 292.842 92.3028 292.861C92.6538 292.885 93.0087 292.904 93.3675 292.924C93.7341 292.947 94.0188 292.943 94.3542 292.951C95.7855 292.963 97.2363 292.857 98.7378 292.619C100.629 292.323 102.564 291.8 104.475 291.039C105.586 290.595 106.69 290.072 107.77 289.463C109.24 288.648 110.652 287.668 111.982 286.549C112.314 286.268 112.637 285.975 112.965 285.686C113.293 285.394 113.597 285.082 113.913 284.774C114.525 284.141 115.118 283.486 115.675 282.792C117.216 280.915 118.515 278.804 119.533 276.553C120.004 275.504 120.426 274.427 120.765 273.327C121.299 271.59 121.678 269.807 121.865 268.009L121.974 266.659C122.001 266.21 122.001 265.758 122.013 265.313C122.017 264.427 121.982 263.35 121.912 262.648C121.771 260.857 121.455 259.133 120.987 257.455C120.527 255.782 119.907 254.174 119.158 252.668C117.68 249.648 115.695 247.042 113.495 244.963C111.304 242.872 108.893 241.307 106.553 240.203C104.213 239.083 101.92 238.463 99.8922 238.12V238.139Z" fill="#C2B7A3"/>
<path d="M169.686 301.424L140.378 330.424C139.972 329.016 139.512 327.681 138.935 326.464C137.831 324.01 136.423 321.993 135.046 320.382C133.654 318.77 132.258 317.572 131.049 316.702C129.852 315.829 128.818 315.259 128.128 314.908C127.422 314.576 127.047 314.401 127.047 314.401C127.047 314.401 127.313 314.72 127.804 315.325C128.054 315.622 128.327 316.012 128.662 316.437C128.83 316.652 128.99 316.905 129.173 317.159C129.356 317.413 129.551 317.678 129.735 317.978C130.499 319.141 131.341 320.584 132.09 322.297C132.453 323.159 132.839 324.061 133.131 325.048C133.299 325.532 133.42 326.047 133.576 326.554C133.693 327.076 133.841 327.595 133.927 328.146C134.145 329.226 134.298 330.358 134.368 331.524C134.407 332.106 134.418 332.699 134.426 333.295C134.411 333.892 134.411 334.497 134.356 335.106C134.192 337.536 133.658 340.033 132.722 342.433C131.805 344.832 130.448 347.142 128.763 349.178C127.059 351.258 125.031 353.029 122.734 354.414C120.449 355.807 117.921 356.806 115.324 357.368C112.727 357.929 110.063 358.074 107.505 357.789C104.946 357.516 102.485 356.857 100.254 355.885C99.6889 355.655 99.1546 355.378 98.6164 355.12C98.3551 354.976 98.0938 354.836 97.8326 354.695L97.6376 354.59L97.5401 354.535L97.5166 354.523C97.5361 354.539 97.4387 354.469 97.5556 354.559L97.5011 354.527L97.0798 354.266L96.6626 354.008C96.5222 353.923 96.3779 353.833 96.2765 353.763C96.0502 353.614 95.8279 353.466 95.6057 353.318C95.161 353.002 94.6969 352.659 94.2679 352.323C92.5363 350.958 91.0855 349.471 89.9194 348.016C88.7456 346.564 87.8485 345.156 87.1582 343.947C86.8033 343.342 86.5381 342.78 86.2768 342.288C86.0428 341.785 85.8439 341.36 85.6802 341.013C85.372 340.303 85.2083 339.92 85.2083 339.92C85.2083 339.92 85.181 340.334 85.1576 341.118C85.1576 341.898 85.177 343.065 85.411 344.532C85.6333 346.003 86.0546 347.793 86.8423 349.771C87.2206 350.77 87.7393 351.781 88.3166 352.85C88.6208 353.361 88.9288 353.899 89.2915 354.41C89.1706 354.488 89.0575 354.574 88.9288 354.648C88.5272 354.918 88.0826 355.152 87.6535 355.417C87.2011 355.647 86.7605 355.908 86.2768 356.123C85.337 356.583 84.3307 356.997 83.2777 357.34C82.2247 357.691 81.125 357.992 79.9823 358.191C78.8396 358.386 77.6695 358.558 76.4683 358.589C75.271 358.62 74.0542 358.577 72.8374 358.433C70.4038 358.16 67.9508 357.453 65.6693 356.381C63.3449 355.3 61.2271 353.841 59.4019 352.046C57.5728 350.263 56.0557 348.156 54.9286 345.886C53.7976 343.615 53.0449 341.184 52.7095 338.754C52.3702 336.323 52.3936 333.896 52.7836 331.61C52.8616 331.037 52.9903 330.475 53.1112 329.921C53.1853 329.644 53.2555 329.371 53.3257 329.101L53.3803 328.898L53.4076 328.797L53.4154 328.77C53.4076 328.789 53.4467 328.688 53.396 328.809L53.4154 328.754L53.5558 328.305L53.6962 327.861C53.743 327.712 53.7898 327.56 53.8327 327.451C53.9185 327.209 54.0043 326.967 54.0901 326.729C54.2774 326.245 54.4879 325.738 54.7024 325.266C55.5604 323.354 56.6017 321.677 57.6743 320.272C58.739 318.86 59.8309 317.713 60.7864 316.804C61.2584 316.344 61.7185 315.969 62.1085 315.618C62.518 315.29 62.8613 315.009 63.146 314.783C63.7309 314.338 64.039 314.104 64.039 314.104C64.039 314.104 63.6568 314.178 62.9314 314.35C62.2178 314.541 61.1609 314.834 59.8739 315.403C58.583 315.957 57.0503 316.773 55.4318 317.963C54.6128 318.548 53.8093 319.262 52.9748 320.042C52.577 320.448 52.1518 320.861 51.7657 321.322C51.5668 321.552 51.368 321.782 51.1651 322.016C50.974 322.258 50.779 322.504 50.584 322.754C50.3812 322.999 50.1979 323.261 50.0185 323.53C49.8352 323.803 49.6441 324.057 49.4647 324.353C49.2854 324.65 49.102 324.95 48.9148 325.255C48.8173 325.414 48.7432 325.543 48.6691 325.68L48.439 326.086C47.7682 327.322 47.1988 328.625 46.7192 330.038C45.8923 332.464 45.3853 335.172 45.3346 337.993C45.1825 337.993 45.0304 337.993 44.8744 337.993C44.5078 337.977 44.1373 337.962 43.7629 337.946C43.5757 337.938 43.3885 337.93 43.2013 337.923C43.0141 337.907 42.823 337.891 42.6319 337.872C42.2497 337.841 41.8675 337.809 41.4775 337.778C40.7014 337.665 39.9097 337.599 39.1102 337.435C37.5112 337.17 35.8693 336.779 34.2196 336.257C33.8101 336.12 33.3889 335.999 32.9794 335.847C32.566 335.699 32.1526 335.547 31.7353 335.394C30.9124 335.055 30.0778 334.72 29.2627 334.31C27.6286 333.51 25.9906 332.624 24.4306 331.548C22.8784 330.467 21.3574 329.281 19.9456 327.935C18.5377 326.589 17.1961 325.134 15.991 323.542C14.7976 321.95 13.7173 320.222 12.7774 318.446C10.8937 314.83 9.59505 310.893 9.08025 306.82C8.51085 302.759 8.72145 298.603 9.55995 294.64C9.76665 293.649 10.0357 292.673 10.3282 291.71C10.4842 291.234 10.6168 290.746 10.7884 290.274C10.9639 289.806 11.1277 289.334 11.311 288.865C12.0442 287.008 12.9568 285.249 13.9552 283.575C15.9832 280.243 18.4753 277.325 21.2404 274.96C21.9151 274.348 22.6327 273.809 23.3347 273.259C23.6935 272.998 24.0601 272.748 24.4189 272.495L24.688 272.307L24.8206 272.214L24.8557 272.19C24.8557 272.19 24.9415 272.14 24.8284 272.202L24.9025 272.155C25.1014 272.03 25.3003 271.902 25.4953 271.777C25.6903 271.652 25.8892 271.527 26.0842 271.402C26.2792 271.277 26.4781 271.149 26.6497 271.055C27.0046 270.848 27.3595 270.645 27.7066 270.446C28.0537 270.24 28.4437 270.064 28.8064 269.873C29.173 269.686 29.5357 269.491 29.9062 269.331C32.8429 267.946 35.7367 267.036 38.3809 266.498C41.0251 265.94 43.4119 265.726 45.397 265.655C46.3915 265.609 47.2807 265.644 48.0607 265.636C48.8368 265.671 49.5037 265.702 50.0458 265.737C51.13 265.831 51.7072 265.882 51.7072 265.882C51.7072 265.882 51.1729 265.659 50.1433 265.269C49.6246 265.09 48.9811 264.883 48.2167 264.641C47.4484 264.43 46.5553 264.173 45.5374 263.986C43.5056 263.568 40.9744 263.252 38.0338 263.295C36.5596 263.295 34.9957 263.455 33.3421 263.666C32.5231 263.81 31.6729 263.927 30.8188 264.138C30.3898 264.235 29.9569 264.329 29.5201 264.438C29.0872 264.559 28.6465 264.684 28.2058 264.809C27.7573 264.926 27.3166 265.078 26.8759 265.234C26.4274 265.394 25.9828 265.531 25.5226 265.722C25.0624 265.909 24.5944 266.1 24.1264 266.291C23.8807 266.389 23.6779 266.482 23.4673 266.58C23.2567 266.678 23.0461 266.771 22.8316 266.869C22.7068 266.927 22.582 266.982 22.4572 267.04C22.2271 266.966 21.9892 266.892 21.7513 266.799C21.4081 266.65 21.0532 266.498 20.6866 266.338C19.9456 266.057 19.2202 265.62 18.448 265.211L18.1594 265.055L17.8786 264.867C17.6914 264.742 17.5003 264.618 17.3092 264.493C16.9348 264.231 16.5214 264.017 16.1626 263.697C15.7921 263.396 15.4138 263.1 15.0277 262.799C14.6533 262.483 14.3062 262.121 13.9357 261.777C13.7563 261.598 13.5613 261.438 13.3936 261.243C13.222 261.052 13.0543 260.857 12.8827 260.665C12.5434 260.275 12.1729 259.905 11.8804 259.456C11.7244 259.241 11.5684 259.027 11.4085 258.812C11.2525 258.594 11.0692 258.395 10.9405 258.157C10.6597 257.696 10.375 257.232 10.0903 256.76C9.84855 256.268 9.60285 255.773 9.35325 255.27C9.21675 255.028 9.12315 254.762 9.02565 254.497C8.92425 254.236 8.82675 253.97 8.72535 253.709C8.49525 253.194 8.38605 252.628 8.21835 252.082C8.14035 251.809 8.05455 251.536 7.98435 251.255C7.93365 250.97 7.88295 250.689 7.83225 250.404C7.78155 250.12 7.72695 249.835 7.67625 249.55C7.61385 249.265 7.62165 248.969 7.59045 248.68C7.57095 248.387 7.53975 248.099 7.51245 247.806L7.49295 247.588L7.48125 247.478V247.435V247.006V246L7.48905 245.492V245.239L7.51635 245.036C7.59045 244.494 7.64505 243.955 7.69575 243.405C7.80885 242.828 7.92585 242.246 8.03895 241.665C8.19105 241.096 8.38215 240.534 8.54205 239.964C9.28695 237.713 10.4569 235.614 11.8999 233.769C12.2353 233.285 12.6526 232.875 13.0465 232.446C13.2454 232.235 13.4248 232.001 13.6393 231.806L14.2789 231.221L14.9146 230.632C15.1447 230.46 15.3748 230.288 15.601 230.117C15.8311 229.945 16.0573 229.773 16.2796 229.594C16.498 229.411 16.7554 229.286 16.9894 229.126C18.838 227.924 20.827 227.015 22.8316 226.488C22.9096 226.492 22.9876 226.492 23.0656 226.5C23.0617 226.477 23.0539 226.449 23.05 226.426C23.5258 226.266 24.0133 226.188 24.4969 226.094C24.7504 226.044 25.0039 225.997 25.2574 225.946L25.4446 225.911L25.5382 225.891H25.5616C25.5616 225.891 25.6279 225.88 25.5343 225.884L25.585 225.876L25.9984 225.825C26.2636 225.798 26.5639 225.751 26.794 225.735C27.0319 225.716 27.2659 225.696 27.4999 225.681C27.9757 225.657 28.4671 225.642 28.939 225.642C30.8383 225.642 32.5972 225.888 34.1416 226.262C35.686 226.625 37.0159 227.109 38.0962 227.565C38.6423 227.788 39.1063 228.029 39.5314 228.221C39.9409 228.431 40.2919 228.615 40.5727 228.771C41.1343 229.091 41.4307 229.262 41.4307 229.262C41.4307 229.262 41.2123 228.997 40.7794 228.509C40.3309 228.041 39.6718 227.331 38.7046 226.566C37.7452 225.79 36.4933 224.928 34.9177 224.147C34.1338 223.746 33.2602 223.406 32.3242 223.067C31.3804 222.759 30.3625 222.474 29.2744 222.283C29.0053 222.224 28.7284 222.185 28.4476 222.15C28.1668 222.115 27.8899 222.064 27.5935 222.045C27.2932 222.021 26.9929 221.994 26.6887 221.97C26.3767 221.943 26.131 221.943 25.8463 221.928L25.429 221.912H25.3783H25.273H25.1599L24.9337 221.928C24.6295 221.943 24.3214 221.959 24.0094 221.974C23.4712 222.002 22.9213 222.025 22.3714 222.107C22.3558 221.92 22.3363 221.736 22.3207 221.545C22.3012 221.354 22.2856 221.163 22.2661 220.968C22.2583 220.773 22.2466 220.578 22.2349 220.379C22.2115 219.988 22.192 219.591 22.1686 219.189C22.1764 218.381 22.1296 217.566 22.1881 216.731C22.2349 215.065 22.4026 213.336 22.699 211.585C22.7809 211.148 22.8433 210.707 22.9408 210.266C23.0344 209.825 23.128 209.384 23.2255 208.936C23.4556 208.05 23.6779 207.156 23.9782 206.271C24.5593 204.496 25.2262 202.705 26.0998 200.969C26.9812 199.24 27.964 197.528 29.1262 195.901C30.2923 194.282 31.5754 192.709 33.0184 191.262C33.7516 190.548 34.4926 189.842 35.2882 189.182C35.6704 188.839 36.0838 188.523 36.4894 188.199L36.7936 187.957L36.9457 187.836L37.0237 187.774L37.0432 187.758L37.7257 187.267C40.6741 185.156 43.9267 183.459 47.3821 182.32C47.9047 182.148 48.4351 181.984 48.9694 181.84C51.8593 181.001 54.8545 180.568 57.8458 180.486C59.0275 180.455 60.2053 180.47 61.3753 180.544C62.4088 180.611 63.4384 180.74 64.4564 180.896C64.9633 180.985 65.4743 181.048 65.9773 181.153C66.4765 181.262 66.9836 181.36 67.4789 181.473C69.4678 181.941 71.3827 182.608 73.2274 183.373C76.9012 184.934 80.2357 187.029 83.0477 189.483C83.7691 190.076 84.4243 190.723 85.0873 191.355C85.4072 191.679 85.7113 192.015 86.0233 192.339L86.2573 192.584L86.3744 192.705L86.4016 192.737C86.4016 192.737 86.4679 192.819 86.3821 192.705L86.4407 192.776C86.6005 192.959 86.7566 193.142 86.9165 193.326C87.0724 193.509 87.2323 193.689 87.3883 193.872C87.5443 194.051 87.7082 194.239 87.8251 194.395C88.0864 194.726 88.3438 195.05 88.6012 195.374C88.8625 195.694 89.1005 196.065 89.3501 196.404C89.5957 196.751 89.8493 197.087 90.0676 197.442C91.5574 199.677 92.7274 201.928 93.6283 204.086C92.7547 206.509 92.3063 208.912 92.1736 211.14C92.006 213.672 92.2789 215.974 92.7079 217.928C93.1486 219.887 93.7766 221.506 94.3928 222.77C95.0012 224.034 95.6017 224.967 96.0229 225.568C96.4597 226.157 96.6937 226.473 96.6937 226.473C96.6937 226.473 96.6119 226.09 96.4597 225.369C96.3779 225.01 96.3194 224.565 96.2218 224.062C96.175 223.808 96.1478 223.527 96.1049 223.234C96.062 222.942 96.0152 222.634 95.9918 222.302C95.8553 220.991 95.7773 219.411 95.8942 217.644C95.9684 216.762 96.0386 215.833 96.2218 214.874C96.2921 214.394 96.4168 213.906 96.5065 213.411C96.6392 212.919 96.7405 212.416 96.9082 211.916C97.2008 210.91 97.5674 209.888 98.0198 208.877C98.4683 207.863 98.9791 206.844 99.6031 205.861C100.223 204.882 100.886 203.903 101.666 202.99C102.45 202.081 103.293 201.207 104.221 200.399C106.058 198.78 108.226 197.43 110.55 196.459C112.914 195.46 115.414 194.867 117.968 194.722C120.519 194.566 123.097 194.851 125.534 195.538C127.976 196.225 130.281 197.297 132.309 198.679C134.337 200.056 136.119 201.706 137.55 203.528C137.925 203.973 138.252 204.445 138.584 204.905C138.74 205.143 138.892 205.381 139.044 205.615L139.157 205.791L139.215 205.881L139.231 205.904C139.223 205.885 139.27 205.982 139.215 205.861L139.247 205.912L139.485 206.318L139.719 206.719C139.797 206.852 139.878 206.993 139.933 207.098C140.054 207.324 140.175 207.551 140.296 207.773C140.53 208.237 140.791 208.721 140.97 209.209C144.808 219.665 137.718 226.106 137.698 226.469C137.636 227.198 137.905 230.425 137.905 230.425C137.905 230.425 141.93 224.975 143.186 223.168L142.975 223.625C142.975 223.625 162.058 243.253 163.93 244.115C165.802 244.977 144.808 219.665 144.808 219.665C145.264 218.334 145.689 216.653 145.892 214.651C146.009 213.652 146.021 212.576 146.001 211.432C145.97 210.863 145.947 210.274 145.865 209.677C145.83 209.376 145.791 209.072 145.756 208.768C145.705 208.463 145.65 208.155 145.6 207.839C145.553 207.523 145.479 207.211 145.405 206.899C145.327 206.583 145.268 206.271 145.167 205.935C145.069 205.6 144.968 205.264 144.867 204.925C144.816 204.745 144.765 204.605 144.718 204.457L144.57 204.016C144.102 202.689 143.521 201.39 142.796 200.087C141.357 197.489 139.352 194.96 136.829 192.822C134.317 190.677 131.287 188.929 127.96 187.813C124.641 186.689 121.038 186.194 117.461 186.408C113.893 186.615 110.348 187.571 107.224 189.089C105.629 189.857 104.154 190.755 102.774 191.773C101.401 192.795 100.149 193.938 99.0298 195.155C97.9729 196.303 97.0448 197.524 96.2413 198.78C96.101 198.343 95.9528 197.906 95.7773 197.473C95.6134 197.048 95.4575 196.615 95.282 196.182C95.0947 195.752 94.9075 195.319 94.7165 194.882C94.5331 194.438 94.3148 194.008 94.0885 193.575C93.8585 193.138 93.6596 192.701 93.3943 192.253C93.133 191.804 92.8717 191.355 92.6104 190.899C92.4739 190.657 92.3491 190.466 92.2204 190.263C92.0917 190.06 91.9631 189.857 91.8344 189.654C91.7057 189.452 91.5731 189.249 91.4444 189.042L91.3936 188.964L91.2883 188.823L91.1713 188.663L90.9373 188.343C90.6215 187.918 90.3133 187.481 89.9857 187.056C89.3072 186.221 88.6246 185.359 87.8603 184.547C87.673 184.341 87.4858 184.134 87.2986 183.923L86.702 183.326C86.2924 182.936 85.9025 182.519 85.4696 182.144C85.0406 181.762 84.6076 181.379 84.1708 180.993C83.7184 180.63 83.2582 180.264 82.8019 179.893C80.9378 178.445 78.8785 177.166 76.6945 176.023C74.5105 174.879 72.1705 173.931 69.7291 173.202C69.1208 173.022 68.5006 172.862 67.8806 172.691C67.2605 172.527 66.6286 172.402 66.0007 172.258C64.7332 172.012 63.4501 171.813 62.1553 171.684C56.9722 171.118 51.5863 171.591 46.4617 173.018C43.9072 173.756 41.419 174.727 39.0556 175.917C38.4706 176.222 37.8895 176.538 37.3084 176.854C36.7351 177.177 36.1813 177.54 35.6197 177.88L35.2024 178.141L34.7773 178.434L33.9271 179.023L33.5059 179.319L33.2992 179.468L33.1237 179.6L32.4295 180.139L31.7353 180.673C31.5442 180.821 31.6534 180.736 31.5988 180.779L31.4584 180.896L31.2712 181.052L30.9007 181.368C30.4093 181.793 29.9062 182.195 29.4499 182.655C28.5061 183.533 27.6247 184.469 26.7706 185.413C25.0741 187.317 23.5882 189.358 22.3324 191.48C21.0727 193.599 20.0002 195.772 19.1773 197.984C18.3544 200.192 17.7265 202.412 17.317 204.601C16.9036 206.79 16.654 208.939 16.6189 211.019C16.5799 213.095 16.6501 215.096 16.9153 216.992C17.1766 219.154 17.6329 221.163 18.1867 223.016C16.9036 223.433 15.6283 223.976 14.3881 224.643C14.0761 224.815 13.7407 224.955 13.4443 225.154C13.144 225.349 12.8398 225.548 12.5356 225.743C12.2314 225.946 11.9272 226.145 11.623 226.348C11.3383 226.578 11.0497 226.808 10.7611 227.038C10.4725 227.273 10.1878 227.503 9.89925 227.737C9.61065 227.971 9.36105 228.248 9.08805 228.505C8.56155 229.036 8.01165 229.551 7.54755 230.152C5.57025 232.438 4.02975 235.169 3.02745 238.087C2.81685 238.829 2.58675 239.566 2.39955 240.311C2.25915 241.068 2.12265 241.825 1.98225 242.582C1.89645 243.382 1.84575 244.197 1.79895 244.997L1.78335 245.297L1.79115 245.551L1.80675 246.058L1.83795 247.065L1.85355 247.568C1.85355 247.549 1.86525 247.861 1.86135 247.744V247.779L1.87305 247.849L1.89255 247.989L1.92765 248.27C1.97835 248.641 2.02905 249.016 2.07585 249.386C2.13825 249.753 2.16165 250.127 2.25915 250.486C2.34885 250.849 2.43855 251.208 2.52435 251.567C2.61405 251.926 2.70375 252.281 2.79345 252.636C2.90265 252.987 3.03525 253.327 3.15615 253.67C3.40575 254.353 3.63585 255.036 3.97125 255.671C4.12725 255.991 4.28325 256.311 4.43925 256.627C4.59525 256.943 4.74345 257.263 4.93845 257.556C5.30505 258.153 5.66385 258.742 6.04605 259.308C6.46335 259.846 6.87675 260.377 7.28625 260.903C7.69965 261.418 8.17935 261.875 8.62005 262.339C9.04905 262.819 9.55215 263.213 10.0201 263.619C10.258 263.818 10.492 264.021 10.726 264.216C10.9561 264.419 11.2213 264.571 11.4631 264.746C11.9623 265.082 12.4381 265.429 12.9295 265.726C13.4365 266.007 13.9279 266.28 14.4154 266.537C14.8873 266.818 15.4099 266.986 15.8857 267.2C16.1275 267.302 16.3654 267.399 16.6033 267.497C16.7203 267.544 16.8373 267.591 16.9543 267.637C17.0752 267.672 17.1961 267.711 17.317 267.747C18.2062 268 19.0291 268.281 19.8442 268.414C19.0408 268.897 18.2257 269.389 17.434 269.947C15.6673 271.164 13.9357 272.565 12.3172 274.161C10.687 275.745 9.18555 277.539 7.80105 279.467C6.41655 281.398 5.19585 283.501 4.17405 285.729C3.92055 286.286 3.68265 286.856 3.43695 287.422C3.19515 287.991 2.99625 288.577 2.77005 289.158C2.36445 290.332 1.99785 291.53 1.69755 292.747C0.453446 297.616 0.168746 302.813 0.831746 307.893C1.18665 310.429 1.76775 312.934 2.57895 315.353L3.23025 317.147C3.46035 317.74 3.72945 318.314 3.97905 318.899C4.49775 320.038 5.16075 321.361 5.68725 322.258L6.10455 322.999C6.21375 323.191 6.15135 323.081 6.18645 323.136L6.21765 323.187L6.28005 323.284L6.40485 323.483L6.65445 323.881C6.98985 324.408 7.30575 324.942 7.68015 325.442C8.38605 326.464 9.15825 327.432 9.93825 328.38C11.5177 330.26 13.2571 331.957 15.1057 333.452C16.9504 334.946 18.8731 336.272 20.866 337.365C22.855 338.457 24.883 339.366 26.9149 340.061C28.9429 340.759 30.9592 341.301 32.9365 341.625C34.9138 341.953 36.8326 342.167 38.6773 342.183C41.1265 342.245 43.4198 342.035 45.5219 341.68C45.8299 344.224 46.5124 346.795 47.581 349.241C48.9772 352.456 51.0286 355.464 53.591 357.968C56.1416 360.477 59.2264 362.463 62.4478 363.758C64.0897 364.425 65.7434 364.917 67.4242 365.256C69.1012 365.588 70.7899 365.752 72.4436 365.764C75.7507 365.795 78.9097 365.186 81.6982 364.164C84.4945 363.15 86.9087 361.71 88.8859 360.13C89.9623 359.279 90.8983 358.374 91.7173 357.469C91.7486 357.504 91.7797 357.539 91.8148 357.574C92.0723 357.84 92.3335 358.109 92.5948 358.378C92.7353 358.522 92.8484 358.632 92.9653 358.745L93.3203 359.088C94.4122 360.106 95.5939 361.047 96.9239 361.909C99.5564 363.649 102.692 365.022 106.12 365.787C109.544 366.563 113.257 366.704 116.935 366.107C120.612 365.518 124.247 364.195 127.496 362.217C130.749 360.251 133.603 357.594 135.78 354.613C136.899 353.096 137.835 351.523 138.627 349.881C139.407 348.238 140.015 346.545 140.46 344.844L169.686 301.413V301.424Z" fill="#C2B7A3"/>
</g>
<defs>
<clipPath id="clip0_102_4676">
<rect width="546" height="400" fill="white" transform="translate(0.5)"/>
</clipPath>
</defs>
</svg>
