<svg width="100" height="86" viewBox="0 0 100 86" fill="none" xmlns="http://www.w3.org/2000/svg">
<path d="M47.6172 0.636719C40.7422 1.16406 36.6016 4.01562 34.4531 9.71875C33.3203 12.7656 32.6562 19.1133 33.0469 23.5273C33.7891 32.2969 39.1602 39.6211 46.3086 41.5742C48.0273 42.0625 51.9727 42.0625 53.6914 41.5742C60.8398 39.6211 66.2109 32.2969 66.9531 23.5273C67.3438 19.1133 66.6797 12.7656 65.5469 9.71875C63.4766 4.21094 59.2383 1.16406 53.0273 0.714844C52.168 0.65625 51.0742 0.578125 50.5859 0.539062C50.0977 0.5 48.7695 0.558594 47.6172 0.636719Z" fill="#C2B7A3"/>
<path d="M23.9258 4.73817C18.2422 5.26552 14.4922 8.29286 13.2031 13.4101C12.4609 16.4179 12.168 22.7265 12.6758 25.1288C13.8086 30.5194 16.875 34.9921 20.7813 36.9843C24.082 38.664 28.0273 38.7226 31.3672 37.1405L32.5781 36.5546L31.543 34.5429C30.332 32.2382 29.5117 29.8944 28.8672 26.9843C28.4961 25.1874 28.4375 24.3671 28.4375 20.539C28.4375 14.4843 29.043 10.7147 30.5859 7.16005C30.957 6.30068 31.2891 5.51942 31.3086 5.40224C31.4258 4.89442 26.7578 4.48427 23.9258 4.73817Z" fill="#C2B7A3"/>
<path d="M71.582 4.73817C69.6289 4.93349 68.6328 5.16786 68.6914 5.42177C68.7109 5.51942 69.043 6.30068 69.4141 7.16005C70.957 10.7147 71.5625 14.4843 71.5625 20.539C71.5625 24.3671 71.5039 25.1874 71.1328 26.9843C70.4883 29.8944 69.668 32.2382 68.457 34.5429L67.4219 36.5546L68.6328 37.1405C71.9727 38.7226 75.918 38.664 79.2188 36.9843C83.125 34.9921 86.1914 30.5194 87.3242 25.1288C87.6367 23.6835 87.6367 18.5272 87.3242 16.2421C86.4844 10.246 84.0234 6.84755 79.4922 5.42177C78.3203 5.05067 73.9258 4.42567 73.4375 4.54286C73.3789 4.56239 72.5586 4.66005 71.582 4.73817Z" fill="#C2B7A3"/>
<path d="M16.0156 40.1875C8.18359 41.9844 4.39453 44.211 2.40234 48.1563C0.996094 50.9297 0.46875 53.8789 0.15625 60.6953L-0.078125 65.7735L0.46875 66.4961C1.58203 67.961 4.86328 70.0117 7.61719 70.9688C9.17969 71.5157 12.9492 72.4922 13.0664 72.3946C13.1055 72.336 13.2227 70.6367 13.3203 68.625C13.4961 64.3282 13.75 61.8086 14.2773 59.0352C15.7227 51.5157 19.0625 46.75 25.1758 43.4297L26.6016 42.6485L25.3711 42.5117C22.7148 42.2383 20.6445 41.4766 19.2773 40.2657C18.9063 39.9532 18.4766 39.6797 18.3398 39.6992C18.1836 39.6992 17.1484 39.9141 16.0156 40.1875Z" fill="#C2B7A3"/>
<path d="M80.8789 40.1485C79.8242 41.2813 77.2852 42.2383 74.6289 42.5118L73.3984 42.6485L74.8242 43.4297C80.9375 46.75 84.2773 51.5157 85.7227 59.0352C86.25 61.8086 86.5039 64.3282 86.6797 68.625C86.7773 70.6367 86.8945 72.336 86.9336 72.3946C87.0508 72.4922 90.8203 71.5157 92.3828 70.9688C95.1367 70.0117 98.418 67.961 99.5313 66.4961L100.078 65.7735L99.8438 60.6953C99.4336 51.711 98.457 48.293 95.5078 45.3438C93.3008 43.1563 90.6641 41.8868 85.918 40.6758C81.582 39.5821 81.4258 39.5625 80.8789 40.1485Z" fill="#C2B7A3"/>
<path d="M38.0859 44.1523C25.4297 46.8476 20.6641 50.6562 18.8281 59.6015C18.1836 62.8046 17.9883 65.0312 17.832 70.9687L17.7148 76.1835L18.9648 77.4335C24.668 83.1171 37.4219 85.9882 54.3555 85.3437C67.0508 84.8749 77.0117 81.8867 81.2305 77.2578L82.2266 76.164V73.1757C82.2266 66.6718 81.6211 60.6953 80.6445 57.3749C79.0625 52.0624 75.8594 48.7226 70.1562 46.496C68.0664 45.6953 62.2461 44.1132 60.4102 43.8593C59.4336 43.7421 59.3555 43.7617 58.5547 44.4648C57.4609 45.3828 55.332 46.4179 53.6133 46.8281C51.7969 47.2578 48.2031 47.2578 46.3867 46.8281C44.6875 46.4179 42.5391 45.4023 41.4648 44.4843C40.5469 43.6835 40.3906 43.664 38.0859 44.1523Z" fill="#C2B7A3"/>
</svg>
