<svg width="98" height="78" viewBox="0 0 98 78" fill="none" xmlns="http://www.w3.org/2000/svg">
<path d="M46.3438 0.562586C46.1094 1.28524 46.2071 3.33602 46.5391 4.60555C47.4571 8.17977 50.0352 10.9337 53.1211 11.6368C54.8203 12.0274 57.125 11.8126 59.5274 11.0313L60.1914 10.8165L59.0391 10.3868C54.4297 8.64852 49.8203 5.11337 48.2383 2.08602C47.2031 0.0938349 46.6367 -0.355383 46.3438 0.562586Z" fill="#C2B7A3"/>
<path d="M26.1094 3.74609C25.8555 4.01953 26.207 4.42969 27.7695 5.64063C28.6484 6.30469 30.3086 7.75 31.4609 8.86328C33.0625 10.3672 33.9219 11.0313 35.0742 11.5977L36.5781 12.3398H39.1367C41.2851 12.3203 41.832 12.2617 42.75 11.8906C44.5469 11.168 44.5273 11.207 43.4336 10.0938C41.1289 7.76953 36.9492 5.32813 33.4726 4.3125C32.0859 3.92188 31.1484 3.78516 28.9805 3.70703C27.4766 3.64844 26.1875 3.66797 26.1094 3.74609Z" fill="#C2B7A3"/>
<path d="M86.4023 13.8439C85.6797 14.0782 84.8398 14.7228 81.9688 17.2032C75.5039 22.8282 67.5352 28.004 63.0234 29.5079C62.2227 29.7814 60.6992 30.1134 59.625 30.2306C57.4961 30.4845 56.4219 30.8165 56.4219 31.2657C56.4219 31.715 57.6719 32.6329 59.0586 33.1993C60.5039 33.7853 63.1016 34.5079 63.8242 34.5079C65.2109 34.5275 64.5664 34.9376 59.1953 37.4962C51.832 41.0314 47.7891 43.1212 47.5547 43.5314C47.4375 43.7071 47.418 43.9415 47.5156 44.0196C47.8086 44.3126 53.7266 44.1173 56.7148 43.7267C58.3359 43.5118 59.7227 43.3946 59.8203 43.4923C60.1328 43.8048 58.8438 45.7579 57.0469 47.6134C52.6328 52.2423 47.9844 53.961 44.2344 52.3985C43.8633 52.2423 42.75 51.5392 41.7539 50.8165C39.1953 48.9806 38.5313 49.1954 39.8398 51.4025C41.7539 54.5665 46.4414 58.7071 49.7031 60.0939L50.9727 60.6212L48.5703 61.5587C43.8633 63.3946 39 66.09 35.9531 68.5509C34.5664 69.6837 31.3633 73.1407 30.9141 74.0001C30.6602 74.4884 30.6602 74.5665 30.9336 74.6837C31.1094 74.7423 31.8516 74.7423 32.5547 74.6642C33.2774 74.6056 34.7031 74.4493 35.7188 74.3517C38.4922 74.0782 41.207 74.3907 48.9023 75.9142C57.3984 77.5939 60.3867 77.9454 64.332 77.8087C72.0664 77.4962 77.3984 75.1329 82.9844 69.4884C86.6172 65.8165 89.1367 62.1837 91.8516 56.6759C97.4961 45.2501 99.0195 33.0821 96.0508 23.2774C93.9805 16.5196 90.0547 12.6525 86.4023 13.8439Z" fill="#C2B7A3"/>
<path d="M51.9883 21.6367L36.1094 28.8438L27.2031 34.2148C22.2813 37.1641 18.2188 39.5859 18.1406 39.5859C18.0625 39.5859 17.9453 39.1758 17.9063 38.6484C17.5938 35.6992 15.3086 32.8867 12.2813 31.6953C11.1484 31.2461 8.7461 31.0703 7.41798 31.3633C4.87892 31.9102 2.4961 33.7656 1.38282 36.0703C-1.5078 42.0273 2.78907 48.7656 9.46876 48.7656C11.793 48.7656 12.7109 48.3164 22.3789 42.4961C27.3594 39.5078 31.6367 36.9297 31.8711 36.7539C32.3203 36.4609 32.3594 36.4805 32.6914 37.1445C32.9063 37.5156 33.0234 37.8477 32.9844 37.8867C32.9258 37.9258 28.6094 40.5234 23.375 43.6875C18.1406 46.832 13.5117 49.7422 13.0625 50.1719C8.68751 54.3906 9.97657 61.8125 15.543 64.4492C16.793 65.0352 16.9883 65.0742 19.1172 65.0742C20.9727 65.0742 21.5391 64.9961 22.4375 64.625C23.8242 64.0781 25.2695 62.9648 26.1875 61.7539C28.2383 59.0586 28.4727 55.1523 26.7734 52.0273C26.2852 51.1289 24.7031 49.4492 23.9024 49.0195C23.6875 48.8828 23.5508 48.7461 23.6094 48.707C23.668 48.6484 27.7305 46.1875 32.6524 43.2188L41.6172 37.8086L55.4063 27.1641C63.0039 21.3047 69.3125 16.3242 69.4492 16.0898C69.7813 15.4844 69.7617 14.6445 69.3906 14.5078C69.2149 14.4492 68.8047 14.3906 68.4727 14.4102C68.082 14.4102 61.5977 17.2617 51.9883 21.6367ZM11.0313 36.0508C11.4609 36.2461 12.125 36.7734 12.5156 37.2227C14.1563 39.1562 13.8242 41.832 11.7344 43.4141C8.66798 45.7773 4.19532 42.8477 5.0547 39.0391C5.64063 36.4414 8.60938 34.957 11.0313 36.0508ZM21.0899 52.6133C22.6133 53.3945 23.2774 54.4297 23.375 56.168C23.4531 57.6133 23.1992 58.375 22.2617 59.3711C21.4414 60.2695 20.4453 60.6797 19.1563 60.6797C17.6328 60.6797 16.5 60.0938 15.6602 58.8633C14.4297 57.0273 14.625 54.9961 16.168 53.4531C17.6328 51.9883 19.293 51.7148 21.0899 52.6133Z" fill="#C2B7A3"/>
<path d="M27.5351 15.2697C26.9492 15.4455 26.0312 15.8361 25.4844 16.1486C24.2539 16.8517 22.75 18.2189 22.9258 18.4728C23.1016 18.7853 26.5586 19.8205 28.5508 20.1721C31.7734 20.7385 35.7773 20.2892 38.6484 19.0588C40.0547 18.4533 39.8984 18.1213 37.9648 17.5549C37.1055 17.301 35.8359 16.8713 35.1328 16.5978C31.832 15.3088 31.2656 15.133 29.957 15.0549C29.0976 15.0158 28.1992 15.0939 27.5351 15.2697Z" fill="#C2B7A3"/>
</svg>
