<svg width="64" height="100" viewBox="0 0 64 100" fill="none" xmlns="http://www.w3.org/2000/svg">
<path d="M30.9648 0.351562C30.7305 0.605469 30.6328 1.07422 30.6328 1.875C30.6328 3.49609 30.3008 5.09766 29.6367 6.875C28.6406 9.43359 27.4883 10.9375 24.0117 14.2578C19.8906 18.1641 14.8711 23.6523 14.3633 24.8047C13.9727 25.6641 13.9727 25.8203 14.1875 30.2734C14.6758 39.8828 15.7109 46.3281 17.8398 52.9297C20.6133 61.5039 21.6484 67.0703 21.668 73.4375C21.668 75.8789 21.5898 76.7578 21.2773 78.0273C20.7695 79.9609 19.8516 81.8359 18.8945 82.8125C17.9766 83.7695 17.0586 84.043 12.3711 84.7656C8.19141 85.4102 6.47265 85.8789 4.71484 86.8359C2.05859 88.3203 0.417967 91.1914 0.906248 93.5156C1.23828 95.0977 1.88281 96.2695 3.03515 97.4219C4.65625 99.0625 7.23437 99.9805 10.125 100C11.6094 100 15.6719 99.4922 21.0234 98.6523C23.3086 98.2812 26.2383 97.9688 28.4062 97.8516C33.1914 97.5977 38.1133 97.8711 42.9766 98.6523C48.3281 99.4922 52.3906 100 53.875 100C58.4648 99.9805 61.9219 97.7344 62.957 94.082C63.9531 90.625 61.3555 87.168 56.707 85.7422C55.9648 85.5273 53.6797 85.0781 51.6289 84.7656C49.5977 84.4531 47.4492 84.043 46.8828 83.8672C45.0273 83.3203 43.582 81.25 42.7227 77.9883C42.4102 76.7578 42.332 75.8789 42.332 73.4375C42.3516 67.0703 43.3867 61.5039 46.1602 52.9297C48.2891 46.3281 49.3242 39.8828 49.8125 30.2734C50.0273 25.8203 50.0273 25.6641 49.6367 24.8047C49.1289 23.6523 44.1094 18.1641 39.9883 14.2578C36.5117 10.9375 35.3594 9.43359 34.3633 6.875C33.6797 5.09766 33.3672 3.49609 33.3672 1.85547C33.3672 0.9375 33.2891 0.566406 33.0156 0.332031C32.5273 -0.117188 31.3555 -0.0976562 30.9648 0.351562ZM34.6562 15.1953C38.0547 19.7461 40.8281 24.043 42.0195 26.543L42.9961 28.5742L42.8594 30.8008C42.6055 34.9023 41.5508 39.6094 40.3398 41.8945C39.5195 43.457 37.8984 45.1172 37.2344 45.1172C36.7656 45.1172 35.7109 44.1797 35.7109 43.7891C35.7109 43.7109 36.1602 43.2031 36.707 42.6758C37.8594 41.5234 38.8945 39.5312 39.2461 37.7344C39.5391 36.1914 39.3633 32.1289 38.9531 30.7617C38.4062 28.9844 37.6641 28.0469 36.1797 27.3242C34.8516 26.6602 34.832 26.6602 32 26.6602C29.168 26.6602 29.1484 26.6602 27.8203 27.3242C26.3359 28.0469 25.5937 28.9844 25.0469 30.7617C24.6367 32.1289 24.4609 36.1914 24.7539 37.7344C25.1055 39.5312 26.1406 41.5234 27.293 42.6758C27.8398 43.2031 28.2891 43.7109 28.2891 43.7891C28.2891 44.1797 27.2344 45.1172 26.7656 45.1172C26.1016 45.1172 24.4805 43.457 23.6602 41.8945C22.4492 39.6094 21.3945 34.9023 21.1406 30.8008L21.0039 28.5742L21.9805 26.543C22.5078 25.4297 23.7969 23.1836 24.8516 21.582C26.6875 18.7891 31.7852 11.7383 32 11.7383C32.0586 11.7383 33.25 13.2812 34.6562 15.1953Z" fill="#C2B7A3"/>
</svg>
