<svg width="100" height="100" viewBox="0 0 100 100" fill="none" xmlns="http://www.w3.org/2000/svg">
<path d="M4.68751 50V89.0625H50H95.3125V50V10.9375H50H4.68751V50ZM91.6992 14.5508L92.1875 15.0195V50V84.9805L91.6992 85.4492L91.2305 85.9375H50H8.76954L8.30079 85.4492L7.81251 84.9805V50V15.0195L8.30079 14.5508L8.76954 14.0625H50H91.2305L91.6992 14.5508Z" fill="#C2B7A3"/>
<path d="M10.9375 50V82.8125H50H89.0625V50V17.1875H50H10.9375V50ZM70.3125 21.875V23.4375H77.6367H84.9805L85.4492 23.9258L85.9375 24.3945V35.9375V47.4805L85.4492 47.9492L84.9805 48.4375H68.75H52.5195L52.0508 47.9492L51.5625 47.4805V35.9375V24.3945L52.0508 23.9258L52.5195 23.4375H59.8633H67.1875V21.875V20.3125H68.75H70.3125V21.875ZM47.9492 23.9258L48.4375 24.3945V43.7891V63.1836L43.3008 68.3008L38.1836 73.4375H26.6016H15.0195L14.5508 72.9492L14.0625 72.4805V48.4375V24.3945L14.5508 23.9258L15.0195 23.4375H31.25H47.4805L47.9492 23.9258ZM70.3125 53.125V54.6875H77.6367H84.9805L85.4492 55.1758L85.9375 55.6445V67.1875V78.7305L85.4492 79.1992L84.9805 79.6875H68.75H52.5195L52.0508 79.1992L51.5625 78.7305V67.1875V55.6445L52.0508 55.1758L52.5195 54.6875H59.8633H67.1875V53.125V51.5625H68.75H70.3125V53.125Z" fill="#C2B7A3"/>
<path d="M54.6875 35.9375V45.3125H68.75H82.8125V35.9375V26.5625H76.5625H70.3125V28.125V29.6875H68.75H67.1875V28.125V26.5625H60.9375H54.6875V35.9375ZM73.4375 34.375V35.9375H67.1875H60.9375V34.375V32.8125H67.1875H73.4375V34.375ZM79.6875 34.375V35.9375H78.125H76.5625V34.375V32.8125H78.125H79.6875V34.375ZM79.6875 40.625V42.1875H68.75H57.8125V40.625V39.0625H68.75H79.6875V40.625Z" fill="#C2B7A3"/>
<path d="M17.1875 48.4375V70.3125H26.5625H35.9375V66.1133C35.9375 60.4883 35.4883 60.9375 41.1133 60.9375H45.3125V43.75V26.5625H31.25H17.1875V48.4375ZM32.8125 31.25V32.8125H31.25H29.6875V31.25V29.6875H31.25H32.8125V31.25ZM35.9375 40.625V42.1875H29.6875H23.4375V40.625V39.0625H29.6875H35.9375V40.625ZM42.1875 40.625V42.1875H40.625H39.0625V40.625V39.0625H40.625H42.1875V40.625ZM42.1875 46.875V48.4375H31.25H20.3125V46.875V45.3125H31.25H42.1875V46.875ZM42.1875 53.125V54.6875H31.25H20.3125V53.125V51.5625H31.25H42.1875V53.125Z" fill="#C2B7A3"/>
<path d="M39.0625 66.0547V68.0664L41.0156 66.1133C42.0898 65.0391 42.9688 64.1406 42.9688 64.1211C42.9688 64.082 42.0898 64.0625 41.0156 64.0625H39.0625V66.0547Z" fill="#C2B7A3"/>
<path d="M54.6875 67.1875V76.5625H68.75H82.8125V67.1875V57.8125H76.5625H70.3125V59.375V60.9375H68.75H67.1875V59.375V57.8125H60.9375H54.6875V67.1875ZM73.4375 65.625V67.1875H67.1875H60.9375V65.625V64.0625H67.1875H73.4375V65.625ZM79.6875 65.625V67.1875H78.125H76.5625V65.625V64.0625H78.125H79.6875V65.625ZM79.6875 71.875V73.4375H68.75H57.8125V71.875V70.3125H68.75H79.6875V71.875Z" fill="#C2B7A3"/>
</svg>
