<svg width="20" height="20" viewBox="0 0 20 20" fill="none" xmlns="http://www.w3.org/2000/svg">
<g clip-path="url(#clip0_217_4305)">
<mask id="mask0_217_4305" style="mask-type:luminance" maskUnits="userSpaceOnUse" x="-1" y="0" width="21" height="20">
<path d="M17.7952 4.10193C17.6136 3.63562 17.3968 3.3017 17.0476 2.95255C16.6973 2.60223 16.3646 2.38547 15.8971 2.20504C15.5444 2.06796 15.0148 1.9051 14.04 1.86057C12.9856 1.81254 12.6692 1.80199 9.99902 1.80199C7.32884 1.80199 7.0125 1.81254 5.95802 1.86057C4.98321 1.9051 4.45362 2.06796 4.10096 2.20504C3.63464 2.38664 3.30072 2.6034 2.95157 2.95255C2.60125 3.30287 2.3845 3.63562 2.20406 4.10193C2.06698 4.4546 1.90412 4.98418 1.8596 5.95899C1.81156 7.01347 1.80102 7.32982 1.80102 10C1.80102 12.6702 1.81156 12.9865 1.8596 14.041C1.90412 15.0158 2.06698 15.5454 2.20406 15.8981C2.38567 16.3644 2.60242 16.6983 2.95157 17.0475C3.30189 17.3978 3.63464 17.6134 4.10096 17.795C4.45362 17.932 4.98321 18.0949 5.95802 18.1394C7.0125 18.1875 7.32884 18.198 9.99902 18.198C12.6692 18.198 12.9856 18.1875 14.04 18.1394C15.0148 18.0949 15.5444 17.932 15.8971 17.795C16.3646 17.6134 16.6973 17.3966 17.0476 17.0475C17.3968 16.6971 17.6136 16.3644 17.7952 15.8981C17.9322 15.5454 18.0951 15.0158 18.1396 14.041C18.1877 12.9865 18.1982 12.6702 18.1982 10C18.1982 7.32982 18.1877 7.01347 18.1396 5.95899C18.0951 4.98418 17.9322 4.4546 17.7952 4.10193ZM10.0002 15.1353C7.16364 15.1353 4.86487 12.8366 4.86487 10C4.86487 7.16344 7.16364 4.86468 10.0002 4.86468C12.8368 4.86468 15.1355 7.16344 15.1355 10C15.1355 12.8366 12.8368 15.1353 10.0002 15.1353ZM15.3382 5.86175C14.6751 5.86175 14.1385 5.32396 14.1385 4.66198C14.1385 4 14.6762 3.46221 15.3382 3.46221C16.0002 3.46221 16.538 3.99883 16.538 4.66198C16.538 5.32513 16.0002 5.86175 15.3382 5.86175ZM10.0002 6.66667C8.15954 6.66667 6.66686 8.15934 6.66686 10C6.66686 11.8407 8.15954 13.3333 10.0002 13.3333C11.8409 13.3333 13.3335 11.8407 13.3335 10C13.3335 8.15934 11.8409 6.66667 10.0002 6.66667ZM19.9404 14.123C19.8912 15.1869 19.7225 15.9145 19.4753 16.5507C19.2199 17.208 18.8778 17.7657 18.3212 18.3222C17.7647 18.8776 17.2082 19.2197 16.5497 19.4751C15.9135 19.7223 15.1871 19.891 14.122 19.9402C13.0558 19.9883 12.7149 20 9.99902 20C7.28315 20 6.94337 19.9883 5.876 19.9402C4.81215 19.891 4.08455 19.7223 3.44835 19.4751C2.79106 19.2197 2.23335 18.8776 1.67682 18.3222C1.12029 17.7657 0.77934 17.208 0.523921 16.5507C0.276704 15.9145 0.107987 15.188 0.0587774 14.123C0.0107399 13.0568 -0.000976562 12.7159 -0.000976562 10C-0.000976562 7.28412 0.0107399 6.94318 0.0587774 5.87698C0.106815 4.81312 0.276704 4.08553 0.523921 3.44933C0.77934 2.79203 1.12146 2.23433 1.67682 1.6778C2.23335 1.12244 2.78988 0.780316 3.44835 0.524898C4.08455 0.27768 4.81097 0.108963 5.876 0.059754C6.9422 0.0105448 7.28315 0 9.99902 0C12.7149 0 13.0558 0.0117165 14.122 0.059754C15.1859 0.107791 15.9135 0.27768 16.5497 0.524898C17.207 0.780316 17.7647 1.12244 18.3212 1.6778C18.8766 2.23433 19.2187 2.79203 19.4753 3.44933C19.7225 4.08553 19.8912 4.81195 19.9404 5.87698C19.9897 6.94318 20.0002 7.28412 20.0002 10C20.0002 12.7159 19.9885 13.0568 19.9404 14.123Z" fill="white"/>
</mask>
<g mask="url(#mask0_217_4305)">
<rect x="-0.263672" y="-0.285156" width="20.5038" height="20.5038" fill="#1A1A1A"/>
</g>
</g>
<defs>
<clipPath id="clip0_217_4305">
<rect width="20" height="20" fill="white"/>
</clipPath>
</defs>
</svg>
