<svg width="24" height="25" viewBox="0 0 24 25" fill="none" xmlns="http://www.w3.org/2000/svg">
<g clip-path="url(#clip0_9_1151)">
<mask id="mask0_9_1151" style="mask-type:luminance" maskUnits="userSpaceOnUse" x="0" y="0" width="24" height="25">
<path d="M21.2223 5.61908C21.0104 5.07505 20.7575 4.68548 20.3502 4.27814C19.9415 3.86943 19.5533 3.61655 19.0079 3.40604C18.5964 3.24611 17.9786 3.05611 16.8413 3.00417C15.6111 2.94812 15.242 2.93582 12.1268 2.93582C9.0116 2.93582 8.64253 2.94812 7.4123 3.00417C6.27502 3.05611 5.65718 3.24611 5.24573 3.40604C4.7017 3.61791 4.31213 3.87079 3.90478 4.27814C3.49607 4.68685 3.24319 5.07505 3.03269 5.61908C2.87276 6.03053 2.68276 6.64838 2.63081 7.78565C2.57477 9.01588 2.56247 9.38495 2.56247 12.5002C2.56247 15.6154 2.57477 15.9844 2.63081 17.2147C2.68276 18.3519 2.87276 18.9698 3.03269 19.3812C3.24456 19.9253 3.49744 20.3148 3.90478 20.7222C4.31349 21.1309 4.7017 21.3824 5.24573 21.5943C5.65718 21.7542 6.27502 21.9442 7.4123 21.9962C8.64253 22.0522 9.0116 22.0645 12.1268 22.0645C15.242 22.0645 15.6111 22.0522 16.8413 21.9962C17.9786 21.9442 18.5964 21.7542 19.0079 21.5943C19.5533 21.3824 19.9415 21.1295 20.3502 20.7222C20.7575 20.3135 21.0104 19.9253 21.2223 19.3812C21.3822 18.9698 21.5722 18.3519 21.6242 17.2147C21.6802 15.9844 21.6925 15.6154 21.6925 12.5002C21.6925 9.38495 21.6802 9.01588 21.6242 7.78565C21.5722 6.64838 21.3822 6.03053 21.2223 5.61908ZM12.1282 18.4914C8.81886 18.4914 6.13697 15.8095 6.13697 12.5002C6.13697 9.19085 8.81886 6.50895 12.1282 6.50895C15.4375 6.50895 18.1194 9.19085 18.1194 12.5002C18.1194 15.8095 15.4375 18.4914 12.1282 18.4914ZM18.3559 7.6722C17.5822 7.6722 16.9561 7.04478 16.9561 6.27247C16.9561 5.50016 17.5836 4.87275 18.3559 4.87275C19.1282 4.87275 19.7556 5.4988 19.7556 6.27247C19.7556 7.04615 19.1282 7.6722 18.3559 7.6722ZM12.1282 8.61127C9.98075 8.61127 8.23929 10.3527 8.23929 12.5002C8.23929 14.6476 9.98075 16.3891 12.1282 16.3891C14.2756 16.3891 16.0171 14.6476 16.0171 12.5002C16.0171 10.3527 14.2756 8.61127 12.1282 8.61127ZM23.7251 17.3104C23.6677 18.5515 23.4709 19.4004 23.1825 20.1426C22.8845 20.9095 22.4853 21.5601 21.836 22.2094C21.1868 22.8573 20.5375 23.2565 19.7693 23.5545C19.027 23.8429 18.1795 24.0397 16.937 24.0971C15.6931 24.1532 15.2953 24.1668 12.1268 24.1668C8.95829 24.1668 8.56188 24.1532 7.31662 24.0971C6.07545 24.0397 5.2266 23.8429 4.48436 23.5545C3.71752 23.2565 3.06686 22.8573 2.41757 22.2094C1.76829 21.5601 1.37051 20.9095 1.07252 20.1426C0.784104 19.4004 0.587268 18.5529 0.529857 17.3104C0.473813 16.0665 0.460144 15.6687 0.460144 12.5002C0.460144 9.33164 0.473813 8.93387 0.529857 7.68997C0.585901 6.44881 0.784104 5.59995 1.07252 4.85771C1.37051 4.09087 1.76965 3.44021 2.41757 2.79093C3.06686 2.14301 3.71615 1.74387 4.48436 1.44588C5.2266 1.15746 6.07409 0.96062 7.31662 0.903209C8.56052 0.845798 8.95829 0.833496 12.1268 0.833496C15.2953 0.833496 15.6931 0.847165 16.937 0.903209C18.1782 0.959253 19.027 1.15746 19.7693 1.44588C20.5361 1.74387 21.1868 2.14301 21.836 2.79093C22.484 3.44021 22.8831 4.09087 23.1825 4.85771C23.4709 5.59995 23.6677 6.44744 23.7251 7.68997C23.7825 8.93387 23.7948 9.33164 23.7948 12.5002C23.7948 15.6687 23.7812 16.0665 23.7251 17.3104Z" fill="white"/>
</mask>
<g mask="url(#mask0_9_1151)">
<rect x="0.153931" y="0.501465" width="23.9211" height="23.9211" fill="#1A1A1A"/>
</g>
</g>
<defs>
<clipPath id="clip0_9_1151">
<rect width="23.3333" height="23.3333" fill="white" transform="translate(0.461487 0.833496)"/>
</clipPath>
</defs>
</svg>
