<svg width="20" height="20" viewBox="0 0 20 20" fill="none" xmlns="http://www.w3.org/2000/svg">
<path d="M19.9851 4.3089C19.9851 4.28605 20.0008 4.2638 19.9998 4.24121L13.8965 10.1221L19.9925 15.8151C19.9961 15.7744 19.9851 15.7334 19.9851 15.6919V4.3089Z" fill="#1A1A1A"/>
<path d="M12.9653 11.0273L10.4737 13.4245C10.3477 13.5458 10.1848 13.6067 10.0219 13.6067C9.86236 13.6067 9.70283 13.5484 9.57762 13.4317L7.09284 11.1163L0.957031 17.0306C1.10623 17.0842 1.26637 17.1258 1.43407 17.1258H18.6098C18.8588 17.1258 19.0924 17.0499 19.2955 16.9368L12.9653 11.0273Z" fill="#1A1A1A"/>
<path d="M10.014 12.0571L19.3285 3.0845C19.1176 2.95911 18.8722 2.875 18.609 2.875H1.4333C1.09068 2.875 0.776741 3.00803 0.532227 3.21093L10.014 12.0571Z" fill="#1A1A1A"/>
<path d="M0 4.52734V15.6916C0 15.8198 0.0294565 15.9433 0.0614329 16.0614L6.12113 10.2261L0 4.52734Z" fill="#1A1A1A"/>
</svg>
