<svg width="96" height="100" viewBox="0 0 96 100" fill="none" xmlns="http://www.w3.org/2000/svg">
<path d="M46.6385 12.5891C46.4329 12.8118 46.3473 13.223 46.3473 13.9254C46.3473 15.3475 46.056 16.7523 45.4735 18.3114C44.5997 20.5558 43.5889 21.875 40.5393 24.7876C36.9243 28.2141 32.5212 33.0284 32.0757 34.0392C31.7331 34.793 31.7331 34.9301 31.9215 38.8363C32.3499 47.2656 33.2579 52.9194 35.1254 58.7103C37.5582 66.2315 38.4662 71.1143 38.4834 76.6996C38.4834 78.8411 38.4148 79.6121 38.1407 80.7257C37.6953 82.4219 36.89 84.0666 36.0505 84.9232C35.2453 85.7627 34.44 86.0026 30.3282 86.6365C26.6618 87.2019 25.1541 87.6131 23.6122 88.4526C21.2822 89.7547 19.843 92.2732 20.2713 94.312C20.5626 95.6997 21.128 96.7277 22.1388 97.7385C23.5608 99.1776 25.8223 99.9829 28.3579 100C29.66 100 33.2236 99.5546 37.918 98.8178C39.9225 98.4923 42.4924 98.2182 44.3941 98.1154C48.5916 97.8927 52.9091 98.1325 57.1751 98.8178C61.8695 99.5546 65.4331 100 66.7351 100C70.7613 99.9829 73.7938 98.0126 74.7018 94.8088C75.5756 91.7763 73.297 88.7438 69.2194 87.4931C68.5683 87.3047 66.5638 86.9106 64.7649 86.6365C62.9831 86.3624 61.0985 86.0026 60.6016 85.8484C58.974 85.3687 57.7062 83.5526 56.9524 80.6915C56.6783 79.6121 56.6097 78.8411 56.6097 76.6996C56.6269 71.1143 57.5349 66.2315 59.9677 58.7103C61.8352 52.9194 62.7432 47.2656 63.1715 38.8363C63.36 34.9301 63.36 34.793 63.0173 34.0392C62.5719 33.0284 58.1688 28.2141 54.5538 24.7876C51.5042 21.875 50.4934 20.5558 49.6196 18.3114C49.02 16.7523 48.7458 15.3475 48.7458 13.9083C48.7458 13.1031 48.6773 12.7775 48.4374 12.572C48.0091 12.1779 46.9812 12.195 46.6385 12.5891ZM49.8766 25.6099C52.8577 29.6018 55.2905 33.371 56.3356 35.564L57.1922 37.3458L57.0723 39.2989C56.8496 42.8968 55.9244 47.0258 54.8622 49.0303C54.1426 50.4009 52.7206 51.8572 52.1381 51.8572C51.7269 51.8572 50.8018 51.0348 50.8018 50.6922C50.8018 50.6236 51.1958 50.1782 51.6755 49.7156C52.6863 48.7048 53.5944 46.9572 53.9028 45.381C54.1598 44.0275 54.0056 40.464 53.6458 39.2647C53.1661 37.7056 52.515 36.8832 51.2129 36.2493C50.0479 35.6668 50.0308 35.6668 47.5465 35.6668C45.0623 35.6668 45.0452 35.6668 43.8802 36.2493C42.5781 36.8832 41.927 37.7056 41.4473 39.2647C41.0875 40.464 40.9333 44.0275 41.1903 45.381C41.4987 46.9572 42.4067 48.7048 43.4176 49.7156C43.8973 50.1782 44.2913 50.6236 44.2913 50.6922C44.2913 51.0348 43.3662 51.8572 42.955 51.8572C42.3725 51.8572 40.9505 50.4009 40.2309 49.0303C39.1687 47.0258 38.2435 42.8968 38.0208 39.2989L37.9008 37.3458L38.7575 35.564C39.2201 34.5874 40.3508 32.6172 41.276 31.2123C42.8865 28.7623 47.3581 22.5774 47.5465 22.5774C47.5979 22.5774 48.643 23.9309 49.8766 25.6099Z" fill="#C2B7A3"/>
<path d="M28.7744 60.8657C28.1328 61.2725 27.2792 61.0839 26.9096 60.4202C25.1149 57.1973 24.0802 53.5998 23.8932 49.9034C23.7061 46.207 24.3724 42.5234 25.8326 39.1358C26.1333 38.4381 26.9636 38.1643 27.643 38.5043C28.3223 38.8443 28.5931 39.6692 28.2975 40.369C27.0467 43.3305 26.4777 46.5419 26.6408 49.7643C26.8038 52.9868 27.694 56.1244 29.2374 58.9444C29.6021 59.6109 29.416 60.4589 28.7744 60.8657Z" fill="#C2B7A3"/>
<path d="M26.2739 70.2293C25.6485 70.8338 24.6483 70.8193 24.0751 70.1652C18.9273 64.2904 16.0795 56.7263 16.0982 48.8796C16.117 41.0328 19.001 33.4824 24.1768 27.6324C24.7531 26.9809 25.7534 26.9713 26.3759 27.5788C26.9984 28.1863 27.0069 29.1808 26.434 29.8352C21.8288 35.0963 19.2648 41.86 19.248 48.8871C19.2312 55.9142 21.7629 62.69 26.3428 67.9731C26.9125 68.6303 26.8993 69.6247 26.2739 70.2293Z" fill="#C2B7A3"/>
<path d="M23.1435 77.1224C22.5658 77.8033 21.5431 77.8895 20.886 77.2848C16.9561 73.6682 13.7853 69.2979 11.5657 64.4282C9.12243 59.0676 7.89214 53.2339 7.9626 47.3431C8.03307 41.4523 9.40255 35.6497 11.9734 30.3491C14.3087 25.5339 17.5832 21.2407 21.5985 17.7191C22.2699 17.1303 23.2903 17.2409 23.8515 17.9355C24.4127 18.63 24.302 19.6454 23.6327 20.2366C19.9864 23.4575 17.0107 27.3732 14.883 31.7602C12.5198 36.6328 11.2609 41.9668 11.1961 47.3818C11.1313 52.7968 12.2623 58.1594 14.5082 63.0871C16.5304 67.5238 19.4117 71.5095 22.9799 74.8167C23.6348 75.4237 23.7212 76.4414 23.1435 77.1224Z" fill="#C2B7A3"/>
<path d="M67.2256 60.8657C67.8672 61.2725 68.7208 61.0839 69.0904 60.4202C70.8851 57.1973 71.9198 53.5998 72.1068 49.9034C72.2939 46.207 71.6276 42.5234 70.1674 39.1358C69.8667 38.4381 69.0364 38.1643 68.357 38.5043C67.6777 38.8443 67.4069 39.6692 67.7025 40.369C68.9533 43.3305 69.5223 46.5419 69.3592 49.7643C69.1962 52.9868 68.306 56.1244 66.7626 58.9444C66.3979 59.6109 66.584 60.4589 67.2256 60.8657Z" fill="#C2B7A3"/>
<path d="M69.7261 70.2293C70.3515 70.8338 71.3517 70.8193 71.9249 70.1652C77.0727 64.2904 79.9205 56.7263 79.9018 48.8796C79.883 41.0328 76.999 33.4824 71.8232 27.6324C71.2469 26.9809 70.2466 26.9713 69.6241 27.5788C69.0016 28.1863 68.9932 29.1808 69.566 29.8352C74.1712 35.0963 76.7352 41.86 76.752 48.8871C76.7688 55.9142 74.2371 62.69 69.6572 67.9731C69.0875 68.6303 69.1007 69.6247 69.7261 70.2293Z" fill="#C2B7A3"/>
<path d="M72.8565 77.1224C73.4342 77.8033 74.4569 77.8895 75.114 77.2848C79.0439 73.6682 82.2147 69.2979 84.4343 64.4282C86.8776 59.0676 88.1079 53.2339 88.0374 47.3431C87.9669 41.4523 86.5975 35.6497 84.0266 30.3491C81.6913 25.5339 78.4168 21.2407 74.4015 17.7191C73.7301 17.1303 72.7097 17.2409 72.1485 17.9355C71.5873 18.63 71.698 19.6454 72.3673 20.2366C76.0136 23.4575 78.9893 27.3732 81.117 31.7602C83.4802 36.6328 84.7391 41.9668 84.8039 47.3818C84.8687 52.7968 83.7377 58.1594 81.4918 63.0871C79.4696 67.5238 76.5883 71.5095 73.0201 74.8167C72.3652 75.4237 72.2788 76.4414 72.8565 77.1224Z" fill="#C2B7A3"/>
</svg>
