<svg width="100" height="100" viewBox="0 0 100 100" fill="none" xmlns="http://www.w3.org/2000/svg">
<path opacity="0.95" fill-rule="evenodd" clip-rule="evenodd" d="M18.457 9.86328C19.0802 9.97895 19.6662 10.2068 20.2148 10.5469C21.6291 11.0486 22.4756 12.0252 22.7539 13.4766C22.7283 13.9165 22.6307 14.3397 22.4609 14.7461C17.7241 22.8521 13.0366 30.9902 8.39844 39.1602C7.42223 40.1576 6.28291 40.3854 4.98047 39.8438C4.0433 39.3291 3.13186 38.7758 2.24609 38.1836C7.70375 28.7646 13.1074 19.3245 18.457 9.86328Z" fill="#C2B7A3"/>
<path opacity="0.951" fill-rule="evenodd" clip-rule="evenodd" d="M81.5429 9.8629C81.8012 9.8297 82.0291 9.89482 82.2265 10.0582C87.6236 19.3879 92.9947 28.7303 98.3398 38.0856C97.4056 38.8858 96.364 39.5367 95.2148 40.0387C93.965 40.3383 92.956 39.9803 92.1875 38.9645C87.5494 30.7945 82.8619 22.6565 78.125 14.5504C77.9582 13.7447 78.0234 12.9635 78.3203 12.2067C79.3484 11.3519 80.4226 10.5707 81.5429 9.8629Z" fill="#C2B7A3"/>
<path opacity="0.977" fill-rule="evenodd" clip-rule="evenodd" d="M24.3164 17.2852C25.6859 17.9363 27.1182 18.4246 28.6133 18.75C31.5361 18.9863 34.4658 19.1165 37.4023 19.1406C39.3734 19.2591 41.2615 19.7148 43.0664 20.5078C41.4732 21.5775 40.4316 23.0424 39.9414 24.9023C36.2947 23.243 33.3977 24.0893 31.25 27.4414C31.0152 28.0809 30.8199 28.7318 30.6641 29.3945C30.5664 36.4906 30.5338 43.5869 30.5664 50.6836C26.817 50.7865 24.5383 52.6746 23.7305 56.3477C21.7162 54.952 19.991 53.2592 18.5547 51.2695C17.2378 49.0264 16.131 46.6826 15.2344 44.2383C14.1279 42.5822 12.8583 41.0523 11.4258 39.6484C15.7003 32.1727 19.9971 24.7184 24.3164 17.2852Z" fill="#C2B7A3"/>
<path opacity="0.978" fill-rule="evenodd" clip-rule="evenodd" d="M76.0742 17.2852C76.6301 17.6708 77.0533 18.1917 77.3438 18.8477C81.3352 25.7242 85.2738 32.6252 89.1602 39.5508C87.9154 40.8939 86.776 42.3262 85.7422 43.8477C84.8201 45.7029 83.9736 47.591 83.2031 49.5117C81.692 52.1748 79.7062 54.4209 77.2461 56.25C75.0977 57.5195 72.9492 58.7891 70.8008 60.0586C70.6381 52.5074 70.5404 44.9553 70.5078 37.4023C69.8504 34.2059 67.8973 32.448 64.6484 32.1289C63.6492 32.1916 62.7051 32.452 61.8164 32.9102C61.6541 31.6129 61.5564 30.3107 61.5234 29.0039C60.7516 25.848 58.7334 24.1553 55.4688 23.9258C54.317 23.9951 53.2428 24.3205 52.2461 24.9023C52.0713 24.5613 51.941 24.2031 51.8555 23.8281C54.1154 22.2746 56.5242 20.9725 59.082 19.9219C60.4871 19.5106 61.9195 19.2502 63.3789 19.1406C66.3154 19.1165 69.2451 18.9863 72.168 18.75C73.5555 18.4294 74.8574 17.9411 76.0742 17.2852Z" fill="#C2B7A3"/>
<path opacity="0.978" fill-rule="evenodd" clip-rule="evenodd" d="M45.4101 22.7538C47.3402 22.528 48.6098 23.3093 49.2187 25.0975C49.2838 35.1235 49.349 45.1497 49.414 55.1757C50.3256 56.4778 51.2369 56.4778 52.1484 55.1757C52.2135 46.5169 52.2787 37.8579 52.3437 29.1991C52.8455 27.71 53.8871 26.9288 55.4687 26.8553C57.0504 26.9288 58.092 27.71 58.5937 29.1991C58.6588 37.8579 58.724 46.5169 58.7891 55.1757C59.7006 56.4778 60.6119 56.4778 61.5234 55.1757C61.5277 49.044 61.658 42.9241 61.9141 36.8163C62.9812 35.094 64.4461 34.6708 66.3086 35.5468C67.0557 36.0327 67.4789 36.7163 67.5781 37.5975C67.7084 48.47 67.7084 59.3423 67.5781 70.2147C67.3619 72.0352 66.906 73.793 66.2109 75.4882C64.8933 78.0583 63.5262 80.5973 62.1094 83.1054C61.4152 84.7962 61.0572 86.554 61.0351 88.3788C52.3947 88.4432 43.7683 88.3782 35.1562 88.1835C34.3576 84.8276 32.7951 81.8979 30.4687 79.3944C28.5974 76.7567 27.4256 73.827 26.9531 70.6053C26.5738 65.6555 26.5738 60.7075 26.9531 55.7616C27.616 54.1755 28.8205 53.4593 30.5664 53.6132C30.5338 56.9993 30.5664 60.3846 30.6641 63.7694C31.5756 65.0716 32.4869 65.0716 33.3984 63.7694C33.4635 52.3762 33.5287 40.9829 33.5937 29.5897C34.2812 27.4382 35.7461 26.6245 37.9883 27.1483C38.8959 27.5596 39.5144 28.2432 39.8437 29.1991C39.9088 37.8579 39.974 46.5169 40.0391 55.1757C40.9506 56.4778 41.8619 56.4778 42.7734 55.1757C42.8385 45.1497 42.9037 35.1235 42.9687 25.0975C43.3828 23.8692 44.1965 23.088 45.4101 22.7538Z" fill="#C2B7A3"/>
<path opacity="0.971" fill-rule="evenodd" clip-rule="evenodd" d="M33.3008 91.3081C43.2619 91.2755 53.2229 91.3081 63.1836 91.4058C63.7369 91.6988 64.1602 92.122 64.4531 92.6753C64.7164 94.0935 64.8141 95.5257 64.7461 96.9722C53.7436 96.9722 42.7408 96.9722 31.7383 96.9722C31.7059 95.7335 31.7383 94.4966 31.8359 93.2613C32.0729 92.4079 32.5611 91.7568 33.3008 91.3081Z" fill="#C2B7A3"/>
</svg>
