<svg width="19" height="20" viewBox="0 0 19 20" fill="none" xmlns="http://www.w3.org/2000/svg">
<path d="M18.3329 11.0817L14.8776 12.93L11.7785 10.0191L14.9023 7.08493L18.3329 8.91996C18.5354 9.02818 18.7038 9.18526 18.821 9.37516C18.9382 9.56506 19 9.78097 19 10.0008C19 10.2207 18.9382 10.4366 18.821 10.6265C18.7038 10.8164 18.5354 10.9735 18.3329 11.0817ZM0.098749 0.769826C0.0336248 0.920049 8.38607e-05 1.08082 0 1.24317V18.7576C0 18.9385 0.0396759 19.1068 0.109329 19.2576L9.94455 10.0183L0.098749 0.769826ZM10.8615 9.15747L13.734 6.45909L1.96175 0.162316C1.70933 0.0255075 1.41554 -0.0270351 1.12768 0.0131469L10.8615 9.15747ZM10.8615 10.88L1.16295 19.991C1.42569 20.021 1.70254 19.9776 1.96175 19.8385L13.7094 13.555L10.8615 10.88Z" fill="#C2B7A3"/>
</svg>
