<svg width="21" height="18" viewBox="0 0 21 18" fill="none" xmlns="http://www.w3.org/2000/svg">
<path d="M13.0391 16.8453C12.5167 17.3678 11.6759 17.3678 11.1534 16.8453C10.8922 16.5841 10.7616 16.2453 10.7616 15.9024C10.7616 15.5596 10.8922 15.2208 11.1534 14.9596L15.782 10.3351L1.6677 10.3351C0.933008 10.3351 0.333007 9.73918 0.333007 9.00041C0.333007 8.26163 0.928926 7.66571 1.6677 7.66571L15.782 7.66571L11.1534 3.04122C10.631 2.51877 10.631 1.67796 11.1534 1.15551C11.6759 0.633059 12.5167 0.633059 13.0391 1.15551L19.9412 8.05755C20.1942 8.30653 20.333 8.6453 20.333 9.00041C20.333 9.35551 20.1942 9.69428 19.9412 9.94326L13.0391 16.8453Z" fill="white"/>
</svg>
