<svg width="21" height="18" viewBox="0 0 21 18" fill="none" xmlns="http://www.w3.org/2000/svg">
<path d="M13.2061 16.8453C12.6837 17.3678 11.8429 17.3678 11.3204 16.8453C11.0592 16.5841 10.9286 16.2453 10.9286 15.9024C10.9286 15.5596 11.0592 15.2208 11.3204 14.9596L15.949 10.3351L1.83469 10.3351C1.1 10.3351 0.5 9.73918 0.5 9.00041C0.5 8.26163 1.09592 7.66571 1.83469 7.66571L15.949 7.66571L11.3204 3.04122C10.798 2.51877 10.798 1.67796 11.3204 1.15551C11.8429 0.633059 12.6837 0.633059 13.2061 1.15551L20.1082 8.05755C20.3612 8.30653 20.5 8.6453 20.5 9.00041C20.5 9.35551 20.3612 9.69428 20.1082 9.94326L13.2061 16.8453Z" fill="#1A1A1A"/>
</svg>
