<svg width="20" height="20" viewBox="0 0 20 20" fill="none" xmlns="http://www.w3.org/2000/svg">
<g clip-path="url(#clip0_1_42656)">
<path d="M19.289 15.7606L15.9972 12.4688C16.5957 11.2718 16.9947 9.87531 16.9947 8.4788C16.9947 3.79052 13.2042 0 8.51591 0C3.82763 0 0.0371094 3.79052 0.0371094 8.4788C0.0371094 13.1671 3.82763 16.9576 8.51591 16.9576C9.91242 16.9576 11.3089 16.5586 12.5059 15.9601L15.7977 19.2519C16.7952 20.2494 18.2915 20.2494 19.289 19.2519C20.1867 18.2544 20.1867 16.7581 19.289 15.7606ZM8.51591 14.9626C4.92489 14.9626 2.03212 12.0698 2.03212 8.4788C2.03212 4.88778 4.92489 1.99501 8.51591 1.99501C12.1069 1.99501 14.9997 4.88778 14.9997 8.4788C14.9997 12.0698 12.1069 14.9626 8.51591 14.9626Z" fill="white"/>
</g>
<defs>
<clipPath id="clip0_1_42656">
<rect width="20" height="20" fill="white"/>
</clipPath>
</defs>
</svg>
