<svg width="21" height="25" viewBox="0 0 21 25" fill="none" xmlns="http://www.w3.org/2000/svg">
<path d="M17.8067 5.57901C16.4862 4.75634 15.5352 3.39683 15.2564 1.80586C15.2299 1.65387 15.209 1.50049 15.195 1.34711V0.833984H11.1765V16.7855C11.1695 18.6456 9.65938 20.1501 7.7979 20.1501C7.25131 20.1501 6.73539 20.0205 6.27804 19.7904C5.1751 19.234 4.41935 18.0921 4.41935 16.7744C4.41935 14.9101 5.93224 13.3972 7.7979 13.3972C8.15486 13.3972 8.50066 13.453 8.82416 13.5548V9.47209C8.48811 9.42607 8.14928 9.40237 7.81045 9.40237C3.73053 9.40376 0.423096 12.7098 0.423096 16.7855C0.423096 19.3414 1.72265 21.5933 3.69707 22.918C4.87252 23.7072 6.2878 24.1659 7.80906 24.1659C11.8876 24.1659 15.195 20.8613 15.195 16.7841V8.63407C16.7651 9.75514 18.6879 10.4147 20.7641 10.4147V6.42121C19.7183 6.42261 18.6949 6.12979 17.8067 5.57762V5.57901Z" fill="#1A1A1A"/>
</svg>
