<svg width="21" height="25" viewBox="0 0 21 25" fill="none" xmlns="http://www.w3.org/2000/svg">
<g clip-path="url(#clip0_9_1163)">
<path d="M17.8066 5.57853C16.4861 4.75585 15.5352 3.39634 15.2563 1.80537C15.2298 1.65338 15.2089 1.5 15.195 1.34662V0.833496H11.1764V16.7851C11.1694 18.6451 9.65932 20.1497 7.79784 20.1497C7.25125 20.1497 6.73533 20.02 6.27798 19.7899C5.17504 19.2336 4.41929 18.0916 4.41929 16.7739C4.41929 14.9096 5.93218 13.3967 7.79784 13.3967C8.1548 13.3967 8.5006 13.4525 8.82409 13.5543V9.4716C8.48805 9.42558 8.14922 9.40188 7.81039 9.40188C3.73047 9.40327 0.423035 12.7093 0.423035 16.7851C0.423035 19.3409 1.72258 21.5928 3.69701 22.9175C4.87246 23.7067 6.28774 24.1654 7.809 24.1654C11.8875 24.1654 15.195 20.8608 15.195 16.7837V8.63358C16.765 9.75465 18.6878 10.4142 20.7641 10.4142V6.42072C19.7183 6.42212 18.6948 6.1293 17.8066 5.57713V5.57853Z" fill="#1A1A1A"/>
</g>
<defs>
<clipPath id="clip0_9_1163">
<rect width="20.341" height="23.3333" fill="white" transform="translate(0.423035 0.833496)"/>
</clipPath>
</defs>
</svg>
