<svg width="17" height="20" viewBox="0 0 17 20" fill="none" xmlns="http://www.w3.org/2000/svg">
<g clip-path="url(#clip0_217_4312)">
<path d="M14.5283 4.06717C13.4247 3.36202 12.63 2.19673 12.3969 0.833035C12.3748 0.702761 12.3573 0.571292 12.3456 0.439823V0H8.98711V13.6728C8.98129 15.2671 7.71922 16.5567 6.16349 16.5567C5.70668 16.5567 5.2755 16.4456 4.89327 16.2484C3.97148 15.7715 3.33987 14.7926 3.33987 13.6632C3.33987 12.0653 4.60426 10.7685 6.16349 10.7685C6.46182 10.7685 6.75082 10.8163 7.02118 10.9036V7.40409C6.74033 7.36465 6.45716 7.34433 6.17398 7.34433C2.76419 7.34552 0 10.1793 0 13.6728C0 15.8635 1.0861 17.7937 2.73622 18.9291C3.7186 19.6056 4.90143 19.9988 6.17281 19.9988C9.58144 19.9988 12.3456 17.1662 12.3456 13.6716V6.68579C13.6578 7.64671 15.2648 8.21202 17 8.21202V4.78905C16.126 4.79025 15.2706 4.53926 14.5283 4.06597V4.06717Z" fill="#1A1A1A"/>
</g>
<defs>
<clipPath id="clip0_217_4312">
<rect width="17" height="20" fill="white"/>
</clipPath>
</defs>
</svg>
