<svg width="90" height="96" viewBox="0 0 90 96" fill="none" xmlns="http://www.w3.org/2000/svg">
<path d="M44.3164 0.636719C43.8477 1.08594 43.8281 1.24219 43.8281 3.27344C43.8281 5.42187 43.8281 5.46094 44.3945 6.02734C45.0195 6.63281 45.3711 6.71094 46.0352 6.35937C46.8359 5.92969 46.9336 5.59766 46.9531 3.3125C46.9531 1.22266 46.9336 1.08594 46.4648 0.636719C46.1719 0.324219 45.7617 0.148438 45.3906 0.148438C45.0195 0.148438 44.6094 0.324219 44.3164 0.636719Z" fill="#C2B7A3"/>
<path d="M31.7578 5.87109C31.4844 6.14453 31.3281 6.57422 31.3281 6.98438C31.3281 7.55078 31.5625 7.86328 32.8516 9.17188C34.1406 10.4414 34.4922 10.6953 35.0195 10.6953C35.8789 10.6953 36.3281 10.4219 36.5625 9.75781C36.8359 8.9375 36.4648 8.25391 34.8828 6.73047C33.7305 5.63672 33.3984 5.42188 32.8516 5.42188C32.4023 5.42188 32.0312 5.57812 31.7578 5.87109Z" fill="#C2B7A3"/>
<path d="M55.7031 6.94531C54.3555 8.29297 54.1797 8.56641 54.1797 9.19141C54.1797 10.1484 54.7266 10.6953 55.6836 10.6953C56.3086 10.6953 56.582 10.5195 57.9297 9.17188C59.2578 7.84375 59.4531 7.55078 59.4531 6.96484C59.4531 6.06641 58.7891 5.42188 57.8906 5.42188C57.3242 5.42188 57.0117 5.65625 55.7031 6.94531Z" fill="#C2B7A3"/>
<path d="M12.7734 9.26953C11.9727 10.6758 10.4102 12.2383 9.00391 13.0391C8.39844 13.3906 7.89062 13.6836 7.89062 13.7227C7.89062 13.7617 8.37891 14.0547 8.98438 14.4062C10.5273 15.2656 11.7773 16.5156 12.6562 18.0195C13.0664 18.7227 13.4375 19.2891 13.457 19.2891C13.4961 19.2891 13.7891 18.7812 14.1406 18.1758C14.9414 16.7695 16.5039 15.207 17.9102 14.4062C18.5156 14.0547 19.0234 13.7617 19.0234 13.7227C19.0234 13.6836 18.5352 13.3711 17.9297 13.0195C16.5234 12.2188 14.9023 10.5977 14.1211 9.23047C13.7891 8.64453 13.4961 8.15625 13.457 8.15625C13.418 8.15625 13.125 8.66406 12.7734 9.26953Z" fill="#C2B7A3"/>
<path d="M44.9219 10.7344C44.7656 10.9883 44.2774 12.3751 43.8281 13.8204C43.3789 15.2657 42.9297 16.5352 42.8321 16.6524C42.7149 16.7501 41.1328 16.8868 39.2774 16.9454C36.3086 17.0235 35.918 17.0821 35.8594 17.3751C35.8203 17.6094 36.5821 18.293 38.4375 19.6798C40.1367 20.9298 41.0938 21.7501 41.0938 21.9844C41.0938 22.1798 40.7031 23.5079 40.2149 24.9532C38.6914 29.4844 38.8281 29.5235 43.5352 26.086C44.375 25.461 45.2149 24.9532 45.3906 24.9532C45.5664 24.9532 46.4258 25.461 47.2852 26.1055C50.0781 28.1368 50.8789 28.6446 51.1524 28.5274C51.6016 28.3712 51.5039 27.8243 50.5664 24.9337C50.0781 23.4493 49.6875 22.1016 49.6875 21.9258C49.6875 21.7696 50.625 20.9493 51.7774 20.1094C54.6094 18.0587 55.0586 17.668 54.9024 17.2774C54.7852 16.9844 54.375 16.9454 51.5821 16.9454C49.336 16.9454 48.3008 16.8673 48.086 16.6915C47.9297 16.5743 47.4219 15.2657 46.9531 13.8204C46.1524 11.2032 45.7422 10.3048 45.3906 10.3048C45.293 10.3048 45.0781 10.5001 44.9219 10.7344Z" fill="#C2B7A3"/>
<path d="M76.6406 15.0508C75.8594 16.3984 74.0039 18.1953 72.6758 18.8984C72.168 19.1719 71.7578 19.4258 71.7578 19.4844C71.7578 19.5625 72.1484 19.7969 72.6172 20.0117C73.8281 20.6172 75.8398 22.5508 76.6406 23.918L77.3242 25.0898L78.0078 23.918C78.8086 22.5703 80.8203 20.6172 82.0312 20.0117C82.5 19.7969 82.8906 19.5625 82.8906 19.5039C82.8906 19.4258 82.3633 19.0938 81.7383 18.7227C80.3516 17.9414 78.8477 16.4375 77.9688 14.9727L77.3242 13.8984L76.6406 15.0508Z" fill="#C2B7A3"/>
<path d="M26.6992 18.2149C25.8789 18.8008 26.0351 20.5782 26.9336 20.9297C27.539 21.1446 31.4062 21.0469 31.7383 20.793C32.5976 20.1289 32.6562 19.0547 31.875 18.3125C31.5039 17.961 31.1914 17.9219 29.2773 17.9219C27.6758 17.9219 27.0117 18 26.6992 18.2149Z" fill="#C2B7A3"/>
<path d="M58.9258 18.3125C58.3594 18.8398 58.2031 19.4062 58.4765 20.0508C58.8086 20.8516 59.4336 21.0469 61.7187 21.0469C63.6328 21.0469 63.8086 21.0078 64.2383 20.5586C64.5508 20.2656 64.7265 19.8555 64.7265 19.4844C64.7265 19.1133 64.5508 18.7031 64.2383 18.4102C63.789 17.9414 63.6523 17.9219 61.5429 17.9219C59.6094 17.9219 59.2773 17.9805 58.9258 18.3125Z" fill="#C2B7A3"/>
<path d="M5.09766 29.3867C4.21875 30.832 2.83203 32.2188 1.40625 33.0977L0.273438 33.8008L1.46484 34.5039C2.89062 35.3438 4.58984 37.1016 5.25391 38.4492C5.52734 38.9766 5.78125 39.4062 5.83984 39.4062C5.89844 39.4062 6.17187 38.9375 6.44531 38.3711C7.07031 37.1406 9.19922 34.9922 10.4883 34.3281C11.3867 33.8594 11.6602 33.5469 11.1719 33.5469C10.332 33.5469 7.63672 31.1055 6.58203 29.4062C6.19141 28.7812 5.85937 28.2734 5.83984 28.2734C5.82031 28.2734 5.48828 28.7812 5.09766 29.3867Z" fill="#C2B7A3"/>
<path d="M17.3437 32.043C16.1914 32.6094 15.0781 33.8203 14.7656 34.8945C14.3945 36.0664 14.4336 53.8594 14.8047 54.6992C15.1562 55.5391 15.664 55.9883 23.7109 62.8242C28.8281 67.1797 30.7422 68.918 30.9765 69.4453C31.289 70.1094 31.3086 71.2617 31.3281 83V95.8516H44.707H58.0859V82.9805C58.0859 73.9961 58.1445 69.9336 58.3008 69.5039C58.4765 69.0352 60.2343 67.4336 65.4883 63C73.4961 56.2422 74.2383 55.5586 74.6093 54.6992C75.0195 53.7617 75.0195 35.5977 74.6093 34.6406C74.1797 33.6055 73.0078 32.4531 71.914 31.9844C69.2578 30.8516 66.0351 32.4531 65.332 35.2461C65.1953 35.7344 65.1172 38.7031 65.1172 42.7656C65.1172 48.8789 65.0781 49.543 64.7461 50.2656C64.4531 50.8906 63.1445 52.1211 58.5351 56.0469C55.3125 58.8008 52.3828 61.2031 52.0117 61.3984C51.4062 61.7305 50.8008 61.7695 44.707 61.7695C38.2226 61.7695 38.0469 61.75 37.3437 61.3398C36.9336 61.1055 34.0234 58.7031 30.8594 56.0078C26.3476 52.1602 25.0195 50.9297 24.707 50.2656C24.3164 49.4844 24.2969 49.1133 24.2969 42.5898C24.2969 35.1875 24.2578 34.7773 23.2031 33.4102C21.9336 31.75 19.2773 31.125 17.3437 32.043Z" fill="#C2B7A3"/>
<path d="M43.4375 35.8906C37.1094 36.7695 33.4375 43.8008 36.211 49.7383C37.8516 53.2344 40.9571 55.2461 44.7071 55.2461C49.1406 55.2461 52.7344 52.375 53.8867 47.9023C55.5664 41.3594 50.0391 34.9922 43.4375 35.8906Z" fill="#C2B7A3"/>
<path d="M83.4766 37.3164C82.6953 38.6641 80.8398 40.4609 79.5117 41.1641C79.0039 41.4375 78.5938 41.6914 78.5938 41.75C78.5938 41.8281 78.9844 42.0625 79.4531 42.2773C80.6641 42.8828 82.6758 44.8164 83.4766 46.1836L84.1602 47.3555L84.8438 46.1836C85.6445 44.8359 87.6562 42.8828 88.8672 42.2773C89.3359 42.0625 89.7266 41.8281 89.7266 41.7695C89.7266 41.6914 89.1992 41.3594 88.5742 40.9883C87.1875 40.207 85.6836 38.7031 84.8047 37.2383L84.1602 36.1641L83.4766 37.3164Z" fill="#C2B7A3"/>
</svg>
