<svg width="20" height="14" viewBox="0 0 20 14" fill="none" xmlns="http://www.w3.org/2000/svg">
<g clip-path="url(#clip0_217_4315)">
<path d="M19.5773 2.191C19.3519 1.33 18.6756 0.651 17.8091 0.42C16.2522 0 9.99648 0 9.99648 0C9.99648 0 3.7478 0 2.18387 0.42C1.32441 0.651 0.648116 1.33 0.422684 2.191C0 3.752 0 7 0 7C0 7 0 10.255 0.415639 11.816C0.648116 12.677 1.32441 13.356 2.18387 13.587C3.7478 14 9.99648 14 9.99648 14C9.99648 14 16.2522 14 17.8091 13.587C18.6685 13.356 19.3519 12.677 19.5773 11.816C20 10.255 20 7 20 7C20 7 20 3.752 19.5773 2.191ZM7.95351 9.961V4.046L13.1807 7L7.95351 9.961Z" fill="#1A1A1A"/>
</g>
<defs>
<clipPath id="clip0_217_4315">
<rect width="20" height="14" fill="white"/>
</clipPath>
</defs>
</svg>
