<svg width="24" height="17" viewBox="0 0 24 17" fill="none" xmlns="http://www.w3.org/2000/svg">
<path d="M23.2992 2.77435C23.0325 1.74935 22.2325 0.941016 21.2075 0.666016C19.3659 0.166016 11.9659 0.166016 11.9659 0.166016C11.9659 0.166016 4.5742 0.166016 2.7242 0.666016C1.70754 0.941016 0.907536 1.74935 0.640869 2.77435C0.140869 4.63268 0.140869 8.49935 0.140869 8.49935C0.140869 8.49935 0.140869 12.3743 0.632536 14.2327C0.907536 15.2577 1.70754 16.066 2.7242 16.341C4.5742 16.8327 11.9659 16.8327 11.9659 16.8327C11.9659 16.8327 19.3659 16.8327 21.2075 16.341C22.2242 16.066 23.0325 15.2577 23.2992 14.2327C23.7992 12.3743 23.7992 8.49935 23.7992 8.49935C23.7992 8.49935 23.7992 4.63268 23.2992 2.77435ZM9.5492 12.0243V4.98268L15.7325 8.49935L9.5492 12.0243Z" fill="#1A1A1A"/>
</svg>
