<svg width="24" height="17" viewBox="0 0 24 17" fill="none" xmlns="http://www.w3.org/2000/svg">
<g clip-path="url(#clip0_9_1175)">
<path d="M23.2992 2.77484C23.0325 1.74984 22.2325 0.941504 21.2075 0.666504C19.3659 0.166504 11.9659 0.166504 11.9659 0.166504C11.9659 0.166504 4.5742 0.166504 2.7242 0.666504C1.70754 0.941504 0.907536 1.74984 0.640869 2.77484C0.140869 4.63317 0.140869 8.49984 0.140869 8.49984C0.140869 8.49984 0.140869 12.3748 0.632536 14.2332C0.907536 15.2582 1.70754 16.0665 2.7242 16.3415C4.5742 16.8332 11.9659 16.8332 11.9659 16.8332C11.9659 16.8332 19.3659 16.8332 21.2075 16.3415C22.2242 16.0665 23.0325 15.2582 23.2992 14.2332C23.7992 12.3748 23.7992 8.49984 23.7992 8.49984C23.7992 8.49984 23.7992 4.63317 23.2992 2.77484ZM9.5492 12.0248V4.98317L15.7325 8.49984L9.5492 12.0248Z" fill="#1A1A1A"/>
</g>
<defs>
<clipPath id="clip0_9_1175">
<rect width="23.6583" height="16.6667" fill="white" transform="translate(0.140869 0.166504)"/>
</clipPath>
</defs>
</svg>
